<svg width="1012" height="213" viewBox="0 0 1012 213" fill="none" xmlns="http://www.w3.org/2000/svg">
<path d="M75.5961 141.5C78.7155 154.499 91.6808 156.492 98.0172 157V108.607V87.86V68.0328L95.5462 66.5095C92.6105 67.3558 87.8451 74.4306 86.2853 81.7425L96.5211 73.1105V81.7425C93.2604 82.4195 86.7728 87.8357 85.3105 96.4677L96.5211 88.8734V108.805C95.831 108.989 95.1749 109.3 94.5714 109.721C93.0002 111 92.5002 111.5 91.5002 115C80.9498 117.031 86.8495 126.173 78.0002 120.5C58.991 108.314 80.4702 59.8619 98.0172 48.691V3.49989C77.5119 -2.08554 71.1755 -3.10107 58.5027 29.9037C33.9694 38.3665 1.70389 54.1443 0.534088 63.4872C-0.635712 72.8301 28.8042 83.7978 44.4015 87.86C43.9141 91.4143 40.4047 105.835 45.8637 143.206C48.2996 159.882 50.4003 166.883 56.5002 174.5C64.0707 183.953 75.5961 182.5 75.5961 182.5V141.5Z" fill="white"/>
<path d="M98.0172 108.607V157C91.6808 156.492 78.7155 154.499 75.5961 141.5V182.5C75.5961 182.5 64.0707 183.953 56.5002 174.5C50.4003 166.883 48.2996 159.882 45.8637 143.206C40.4047 105.835 43.9141 91.4143 44.4015 87.86C28.8042 83.7978 -0.635709 72.8301 0.534088 63.4872C1.70389 54.1443 33.9694 38.3665 58.5027 29.9037C71.1755 -3.10107 77.5119 -2.08554 98.0172 3.49989V48.691C80.4702 59.8619 58.991 108.314 78.0002 120.5C86.8495 126.173 80.9498 117.031 91.5002 115C92.5002 111.5 93.0002 111 94.5714 109.721C95.1749 109.3 95.831 108.989 96.5211 108.805M98.0172 108.607V87.86M98.0172 108.607C97.5061 108.607 97.0052 108.675 96.5211 108.805M98.0172 87.86V68.0328L95.5462 66.5095C92.6105 67.3558 87.8451 74.4306 86.2853 81.7425L96.5211 73.1105V81.7425C93.2604 82.4195 86.7728 87.8357 85.3105 96.4677L96.5211 88.8734M98.0172 87.86L96.5211 88.8734M96.5211 108.805V88.8734" stroke="white"/>
<path d="M120.921 141.5C117.802 154.499 104.837 156.492 98.5003 157V108.607V87.86V68.0328L100.971 66.5095C103.907 67.3558 108.672 74.4306 110.232 81.7425L99.9964 73.1105V81.7425C103.257 82.4195 109.745 87.8357 111.207 96.4677L99.9964 88.8734V108.805C100.686 108.989 101.343 109.3 101.946 109.721C103.517 111 104.017 111.5 105.017 115C115.568 117.031 109.668 126.173 118.517 120.5C137.526 108.314 116.047 59.8619 98.5003 48.691V3.49989C119.006 -2.08554 125.342 -3.10107 138.015 29.9037C162.548 38.3665 194.814 54.1443 195.983 63.4872C197.153 72.8301 167.713 83.7978 152.116 87.86C152.603 91.4143 156.113 105.835 150.654 143.206C148.218 159.882 146.117 166.883 140.017 174.5C132.447 183.953 120.921 182.5 120.921 182.5V141.5Z" fill="white"/>
<path d="M98.5003 108.607V157C104.837 156.492 117.802 154.499 120.921 141.5V182.5C120.921 182.5 132.447 183.953 140.017 174.5C146.117 166.883 148.218 159.882 150.654 143.206C156.113 105.835 152.603 91.4143 152.116 87.86C167.713 83.7978 197.153 72.8301 195.983 63.4872C194.814 54.1443 162.548 38.3665 138.015 29.9037C125.342 -3.10107 119.006 -2.08554 98.5003 3.49989V48.691C116.047 59.8619 137.526 108.314 118.517 120.5C109.668 126.173 115.568 117.031 105.017 115C104.017 111.5 103.517 111 101.946 109.721C101.343 109.3 100.686 108.989 99.9964 108.805M98.5003 108.607V87.86M98.5003 108.607C99.0114 108.607 99.5122 108.675 99.9964 108.805M98.5003 87.86V68.0328L100.971 66.5095C103.907 67.3558 108.672 74.4306 110.232 81.7425L99.9964 73.1105V81.7425C103.257 82.4195 109.745 87.8357 111.207 96.4677L99.9964 88.8734M98.5003 87.86L99.9964 88.8734M99.9964 108.805V88.8734" stroke="white"/>
<path d="M55.5636 48.2144C52.0542 54.7138 45.6249 78.8602 44.0002 88C11.8308 78.3524 -0.736574 72.9946 4.63282 63.2058C6.58248 59.6514 18.4433 51.7911 37.7771 46.9573C49.4867 44.0296 83.8337 38.5669 97.9687 38.0591V39.5824C77.0245 40.5979 56.5384 44.66 55.5636 48.2144Z" fill="url(#paint0_linear_8_25)"/>
<path d="M140.388 48.2144C143.898 54.7138 150.876 78.3602 152.5 87.5C184.67 77.8524 196.689 72.9946 191.319 63.2058C189.37 59.6514 177.509 51.7911 158.175 46.9573C146.465 44.0296 112.118 38.5669 97.9833 38.0591L97.9833 39.5824C118.455 40.5979 139.414 44.66 140.388 48.2144Z" fill="url(#paint1_linear_8_25)"/>
<mask id="path-7-outside-1_8_25" maskUnits="userSpaceOnUse" x="178.5" y="61.5" width="735" height="123" fill="black">
<rect fill="white" x="178.5" y="61.5" width="735" height="123"/>
<path d="M263.284 102.5C262.112 98.9133 260.568 95.6995 258.65 92.8586C256.768 89.9822 254.513 87.5319 251.885 85.5078C249.293 83.4836 246.345 81.9389 243.043 80.8735C239.74 79.8082 236.118 79.2755 232.176 79.2755C225.713 79.2755 219.836 80.9446 214.545 84.2826C209.254 87.6207 205.046 92.539 201.921 99.0376C198.796 105.536 197.233 113.508 197.233 122.955C197.233 132.401 198.813 140.373 201.974 146.871C205.134 153.37 209.414 158.288 214.811 161.626C220.209 164.964 226.282 166.633 233.029 166.633C239.279 166.633 244.783 165.302 249.541 162.638C254.335 159.94 258.064 156.14 260.728 151.239C263.426 146.303 264.776 140.497 264.776 133.821L268.824 134.673H236.012V122.955H277.56V134.673C277.56 143.658 275.642 151.47 271.807 158.111C268.007 164.751 262.752 169.901 256.04 173.558C249.364 177.18 241.693 178.991 233.029 178.991C223.37 178.991 214.882 176.719 207.567 172.173C200.287 167.628 194.605 161.165 190.522 152.784C186.473 144.403 184.449 134.46 184.449 122.955C184.449 114.325 185.603 106.566 187.911 99.6768C190.255 92.7521 193.558 86.8572 197.819 81.9922C202.081 77.1271 207.123 73.3984 212.947 70.8061C218.771 68.2137 225.181 66.9176 232.176 66.9176C237.929 66.9176 243.291 67.7876 248.263 69.5277C253.27 71.2322 257.727 73.6647 261.633 76.8252C265.575 79.9502 268.86 83.6967 271.487 88.0646C274.115 92.397 275.926 97.2088 276.921 102.5H263.284ZM300.185 177.5V68.4091H337.046C345.569 68.4091 352.564 69.865 358.033 72.777C363.502 75.6534 367.55 79.6129 370.178 84.6555C372.806 89.6981 374.12 95.4332 374.12 101.861C374.12 108.288 372.806 113.988 370.178 118.959C367.55 123.931 363.52 127.837 358.086 130.678C352.653 133.484 345.711 134.886 337.259 134.886H307.429V122.955H336.833C342.657 122.955 347.344 122.102 350.895 120.398C354.482 118.693 357.074 116.278 358.672 113.153C360.306 109.993 361.123 106.229 361.123 101.861C361.123 97.4929 360.306 93.6754 358.672 90.4083C357.039 87.1413 354.429 84.62 350.842 82.8444C347.255 81.0333 342.515 80.1278 336.62 80.1278H313.395V177.5H300.185ZM351.535 128.494L378.381 177.5H363.04L336.62 128.494H351.535ZM488.178 122.955C488.178 134.46 486.1 144.403 481.946 152.784C477.791 161.165 472.091 167.628 464.847 172.173C457.603 176.719 449.328 178.991 440.024 178.991C430.72 178.991 422.446 176.719 415.202 172.173C407.958 167.628 402.258 161.165 398.103 152.784C393.948 144.403 391.871 134.46 391.871 122.955C391.871 111.449 393.948 101.506 398.103 93.125C402.258 84.7443 407.958 78.2812 415.202 73.7358C422.446 69.1903 430.72 66.9176 440.024 66.9176C449.328 66.9176 457.603 69.1903 464.847 73.7358C472.091 78.2812 477.791 84.7443 481.946 93.125C486.1 101.506 488.178 111.449 488.178 122.955ZM475.394 122.955C475.394 113.508 473.813 105.536 470.653 99.0376C467.528 92.539 463.284 87.6207 457.922 84.2826C452.595 80.9446 446.63 79.2755 440.024 79.2755C433.419 79.2755 427.436 80.9446 422.073 84.2826C416.747 87.6207 412.503 92.539 409.343 99.0376C406.218 105.536 404.655 113.508 404.655 122.955C404.655 132.401 406.218 140.373 409.343 146.871C412.503 153.37 416.747 158.288 422.073 161.626C427.436 164.964 433.419 166.633 440.024 166.633C446.63 166.633 452.595 164.964 457.922 161.626C463.284 158.288 467.528 153.37 470.653 146.871C473.813 140.373 475.394 132.401 475.394 122.955ZM598.174 102.5H584.964C584.183 98.7002 582.816 95.3622 580.862 92.4858C578.945 89.6093 576.601 87.1946 573.831 85.2414C571.097 83.2528 568.061 81.7613 564.723 80.767C561.384 79.7727 557.904 79.2755 554.282 79.2755C547.677 79.2755 541.693 80.9446 536.331 84.2826C531.005 87.6207 526.761 92.539 523.6 99.0376C520.475 105.536 518.913 113.508 518.913 122.955C518.913 132.401 520.475 140.373 523.6 146.871C526.761 153.37 531.005 158.288 536.331 161.626C541.693 164.964 547.677 166.633 554.282 166.633C557.904 166.633 561.384 166.136 564.723 165.142C568.061 164.148 571.097 162.674 573.831 160.721C576.601 158.732 578.945 156.3 580.862 153.423C582.816 150.511 584.183 147.173 584.964 143.409H598.174C597.18 148.984 595.369 153.974 592.741 158.377C590.113 162.781 586.846 166.527 582.94 169.616C579.034 172.67 574.648 174.996 569.783 176.594C564.953 178.192 559.786 178.991 554.282 178.991C544.978 178.991 536.704 176.719 529.46 172.173C522.215 167.628 516.516 161.165 512.361 152.784C508.206 144.403 506.129 134.46 506.129 122.955C506.129 111.449 508.206 101.506 512.361 93.125C516.516 84.7443 522.215 78.2812 529.46 73.7358C536.704 69.1903 544.978 66.9176 554.282 66.9176C559.786 66.9176 564.953 67.7166 569.783 69.3146C574.648 70.9126 579.034 73.2564 582.94 76.3458C586.846 79.3998 590.113 83.1285 592.741 87.5319C595.369 91.8998 597.18 96.8892 598.174 102.5ZM711.566 122.955C711.566 134.46 709.489 144.403 705.334 152.784C701.179 161.165 695.48 167.628 688.236 172.173C680.991 176.719 672.717 178.991 663.413 178.991C654.109 178.991 645.835 176.719 638.591 172.173C631.346 167.628 625.647 161.165 621.492 152.784C617.337 144.403 615.26 134.46 615.26 122.955C615.26 111.449 617.337 101.506 621.492 93.125C625.647 84.7443 631.346 78.2812 638.591 73.7358C645.835 69.1903 654.109 66.9176 663.413 66.9176C672.717 66.9176 680.991 69.1903 688.236 73.7358C695.48 78.2812 701.179 84.7443 705.334 93.125C709.489 101.506 711.566 111.449 711.566 122.955ZM698.782 122.955C698.782 113.508 697.202 105.536 694.042 99.0376C690.917 92.539 686.673 87.6207 681.311 84.2826C675.984 80.9446 670.018 79.2755 663.413 79.2755C656.808 79.2755 650.824 80.9446 645.462 84.2826C640.135 87.6207 635.892 92.539 632.731 99.0376C629.606 105.536 628.044 113.508 628.044 122.955C628.044 132.401 629.606 140.373 632.731 146.871C635.892 153.37 640.135 158.288 645.462 161.626C650.824 164.964 656.808 166.633 663.413 166.633C670.018 166.633 675.984 164.964 681.311 161.626C686.673 158.288 690.917 153.37 694.042 146.871C697.202 140.373 698.782 132.401 698.782 122.955ZM767.444 177.5H733.779V68.4091H768.935C779.517 68.4091 788.573 70.593 796.101 74.9609C803.63 79.2933 809.4 85.5255 813.413 93.6576C817.426 101.754 819.432 111.449 819.432 122.741C819.432 134.105 817.408 143.888 813.36 152.092C809.312 160.259 803.417 166.545 795.675 170.948C787.934 175.316 778.523 177.5 767.444 177.5ZM746.989 165.781H766.591C775.611 165.781 783.086 164.041 789.017 160.561C794.947 157.081 799.368 152.127 802.28 145.7C805.192 139.272 806.648 131.619 806.648 122.741C806.648 113.935 805.21 106.353 802.334 99.9964C799.457 93.6044 795.16 88.7038 789.443 85.2947C783.726 81.8501 776.606 80.1278 768.083 80.1278H746.989V165.781ZM841.591 177.5V68.4091H907.429V80.1278H854.802V116.989H904.02V128.707H854.802V165.781H908.282V177.5H841.591Z"/>
</mask>
<path d="M263.284 102.5C262.112 98.9133 260.568 95.6995 258.65 92.8586C256.768 89.9822 254.513 87.5319 251.885 85.5078C249.293 83.4836 246.345 81.9389 243.043 80.8735C239.74 79.8082 236.118 79.2755 232.176 79.2755C225.713 79.2755 219.836 80.9446 214.545 84.2826C209.254 87.6207 205.046 92.539 201.921 99.0376C198.796 105.536 197.233 113.508 197.233 122.955C197.233 132.401 198.813 140.373 201.974 146.871C205.134 153.37 209.414 158.288 214.811 161.626C220.209 164.964 226.282 166.633 233.029 166.633C239.279 166.633 244.783 165.302 249.541 162.638C254.335 159.94 258.064 156.14 260.728 151.239C263.426 146.303 264.776 140.497 264.776 133.821L268.824 134.673H236.012V122.955H277.56V134.673C277.56 143.658 275.642 151.47 271.807 158.111C268.007 164.751 262.752 169.901 256.04 173.558C249.364 177.18 241.693 178.991 233.029 178.991C223.37 178.991 214.882 176.719 207.567 172.173C200.287 167.628 194.605 161.165 190.522 152.784C186.473 144.403 184.449 134.46 184.449 122.955C184.449 114.325 185.603 106.566 187.911 99.6768C190.255 92.7521 193.558 86.8572 197.819 81.9922C202.081 77.1271 207.123 73.3984 212.947 70.8061C218.771 68.2137 225.181 66.9176 232.176 66.9176C237.929 66.9176 243.291 67.7876 248.263 69.5277C253.27 71.2322 257.727 73.6647 261.633 76.8252C265.575 79.9502 268.86 83.6967 271.487 88.0646C274.115 92.397 275.926 97.2088 276.921 102.5H263.284ZM300.185 177.5V68.4091H337.046C345.569 68.4091 352.564 69.865 358.033 72.777C363.502 75.6534 367.55 79.6129 370.178 84.6555C372.806 89.6981 374.12 95.4332 374.12 101.861C374.12 108.288 372.806 113.988 370.178 118.959C367.55 123.931 363.52 127.837 358.086 130.678C352.653 133.484 345.711 134.886 337.259 134.886H307.429V122.955H336.833C342.657 122.955 347.344 122.102 350.895 120.398C354.482 118.693 357.074 116.278 358.672 113.153C360.306 109.993 361.123 106.229 361.123 101.861C361.123 97.4929 360.306 93.6754 358.672 90.4083C357.039 87.1413 354.429 84.62 350.842 82.8444C347.255 81.0333 342.515 80.1278 336.62 80.1278H313.395V177.5H300.185ZM351.535 128.494L378.381 177.5H363.04L336.62 128.494H351.535ZM488.178 122.955C488.178 134.46 486.1 144.403 481.946 152.784C477.791 161.165 472.091 167.628 464.847 172.173C457.603 176.719 449.328 178.991 440.024 178.991C430.72 178.991 422.446 176.719 415.202 172.173C407.958 167.628 402.258 161.165 398.103 152.784C393.948 144.403 391.871 134.46 391.871 122.955C391.871 111.449 393.948 101.506 398.103 93.125C402.258 84.7443 407.958 78.2812 415.202 73.7358C422.446 69.1903 430.72 66.9176 440.024 66.9176C449.328 66.9176 457.603 69.1903 464.847 73.7358C472.091 78.2812 477.791 84.7443 481.946 93.125C486.1 101.506 488.178 111.449 488.178 122.955ZM475.394 122.955C475.394 113.508 473.813 105.536 470.653 99.0376C467.528 92.539 463.284 87.6207 457.922 84.2826C452.595 80.9446 446.63 79.2755 440.024 79.2755C433.419 79.2755 427.436 80.9446 422.073 84.2826C416.747 87.6207 412.503 92.539 409.343 99.0376C406.218 105.536 404.655 113.508 404.655 122.955C404.655 132.401 406.218 140.373 409.343 146.871C412.503 153.37 416.747 158.288 422.073 161.626C427.436 164.964 433.419 166.633 440.024 166.633C446.63 166.633 452.595 164.964 457.922 161.626C463.284 158.288 467.528 153.37 470.653 146.871C473.813 140.373 475.394 132.401 475.394 122.955ZM598.174 102.5H584.964C584.183 98.7002 582.816 95.3622 580.862 92.4858C578.945 89.6093 576.601 87.1946 573.831 85.2414C571.097 83.2528 568.061 81.7613 564.723 80.767C561.384 79.7727 557.904 79.2755 554.282 79.2755C547.677 79.2755 541.693 80.9446 536.331 84.2826C531.005 87.6207 526.761 92.539 523.6 99.0376C520.475 105.536 518.913 113.508 518.913 122.955C518.913 132.401 520.475 140.373 523.6 146.871C526.761 153.37 531.005 158.288 536.331 161.626C541.693 164.964 547.677 166.633 554.282 166.633C557.904 166.633 561.384 166.136 564.723 165.142C568.061 164.148 571.097 162.674 573.831 160.721C576.601 158.732 578.945 156.3 580.862 153.423C582.816 150.511 584.183 147.173 584.964 143.409H598.174C597.18 148.984 595.369 153.974 592.741 158.377C590.113 162.781 586.846 166.527 582.94 169.616C579.034 172.67 574.648 174.996 569.783 176.594C564.953 178.192 559.786 178.991 554.282 178.991C544.978 178.991 536.704 176.719 529.46 172.173C522.215 167.628 516.516 161.165 512.361 152.784C508.206 144.403 506.129 134.46 506.129 122.955C506.129 111.449 508.206 101.506 512.361 93.125C516.516 84.7443 522.215 78.2812 529.46 73.7358C536.704 69.1903 544.978 66.9176 554.282 66.9176C559.786 66.9176 564.953 67.7166 569.783 69.3146C574.648 70.9126 579.034 73.2564 582.94 76.3458C586.846 79.3998 590.113 83.1285 592.741 87.5319C595.369 91.8998 597.18 96.8892 598.174 102.5ZM711.566 122.955C711.566 134.46 709.489 144.403 705.334 152.784C701.179 161.165 695.48 167.628 688.236 172.173C680.991 176.719 672.717 178.991 663.413 178.991C654.109 178.991 645.835 176.719 638.591 172.173C631.346 167.628 625.647 161.165 621.492 152.784C617.337 144.403 615.26 134.46 615.26 122.955C615.26 111.449 617.337 101.506 621.492 93.125C625.647 84.7443 631.346 78.2812 638.591 73.7358C645.835 69.1903 654.109 66.9176 663.413 66.9176C672.717 66.9176 680.991 69.1903 688.236 73.7358C695.48 78.2812 701.179 84.7443 705.334 93.125C709.489 101.506 711.566 111.449 711.566 122.955ZM698.782 122.955C698.782 113.508 697.202 105.536 694.042 99.0376C690.917 92.539 686.673 87.6207 681.311 84.2826C675.984 80.9446 670.018 79.2755 663.413 79.2755C656.808 79.2755 650.824 80.9446 645.462 84.2826C640.135 87.6207 635.892 92.539 632.731 99.0376C629.606 105.536 628.044 113.508 628.044 122.955C628.044 132.401 629.606 140.373 632.731 146.871C635.892 153.37 640.135 158.288 645.462 161.626C650.824 164.964 656.808 166.633 663.413 166.633C670.018 166.633 675.984 164.964 681.311 161.626C686.673 158.288 690.917 153.37 694.042 146.871C697.202 140.373 698.782 132.401 698.782 122.955ZM767.444 177.5H733.779V68.4091H768.935C779.517 68.4091 788.573 70.593 796.101 74.9609C803.63 79.2933 809.4 85.5255 813.413 93.6576C817.426 101.754 819.432 111.449 819.432 122.741C819.432 134.105 817.408 143.888 813.36 152.092C809.312 160.259 803.417 166.545 795.675 170.948C787.934 175.316 778.523 177.5 767.444 177.5ZM746.989 165.781H766.591C775.611 165.781 783.086 164.041 789.017 160.561C794.947 157.081 799.368 152.127 802.28 145.7C805.192 139.272 806.648 131.619 806.648 122.741C806.648 113.935 805.21 106.353 802.334 99.9964C799.457 93.6044 795.16 88.7038 789.443 85.2947C783.726 81.8501 776.606 80.1278 768.083 80.1278H746.989V165.781ZM841.591 177.5V68.4091H907.429V80.1278H854.802V116.989H904.02V128.707H854.802V165.781H908.282V177.5H841.591Z" fill="white"/>
<path d="M263.284 102.5L258.532 104.053L259.658 107.5H263.284V102.5ZM258.65 92.8586L254.466 95.5963L254.486 95.6263L254.506 95.656L258.65 92.8586ZM251.885 85.5078L248.808 89.4487L248.821 89.4589L248.834 89.4689L251.885 85.5078ZM243.043 80.8735L244.578 76.115L244.578 76.115L243.043 80.8735ZM201.921 99.0376L206.427 101.204L206.427 101.204L201.921 99.0376ZM201.974 146.871L197.478 149.058L197.478 149.058L201.974 146.871ZM249.541 162.638L251.983 167.002L251.994 166.995L249.541 162.638ZM260.728 151.239L256.34 148.841L256.334 148.852L260.728 151.239ZM264.776 133.821L265.806 128.928L259.776 127.659V133.821H264.776ZM268.824 134.673V139.673L269.854 129.781L268.824 134.673ZM236.012 134.673H231.012V139.673H236.012V134.673ZM236.012 122.955V117.955H231.012V122.955H236.012ZM277.56 122.955H282.56V117.955H277.56V122.955ZM271.807 158.111L267.477 155.61L267.472 155.619L267.467 155.628L271.807 158.111ZM256.04 173.558L258.424 177.953L258.433 177.949L256.04 173.558ZM207.567 172.173L204.919 176.414L204.928 176.42L207.567 172.173ZM190.522 152.784L186.019 154.959L186.023 154.967L186.027 154.974L190.522 152.784ZM187.911 99.6768L183.175 98.0738L183.173 98.0811L183.171 98.0883L187.911 99.6768ZM197.819 81.9922L201.58 85.2866L201.58 85.2866L197.819 81.9922ZM248.263 69.5277L246.611 74.247L246.631 74.254L246.652 74.2609L248.263 69.5277ZM261.633 76.8252L258.488 80.7123L258.507 80.7279L258.527 80.7433L261.633 76.8252ZM271.487 88.0646L267.203 90.6422L267.208 90.6499L267.212 90.6577L271.487 88.0646ZM276.921 102.5V107.5H282.948L281.835 101.577L276.921 102.5ZM263.284 102.5L268.037 100.947C266.735 96.9634 264.996 93.3233 262.794 90.0613L258.65 92.8586L254.506 95.656C256.139 98.0758 257.489 100.863 258.532 104.053L263.284 102.5ZM258.65 92.8586L262.834 90.121C260.657 86.7934 258.024 83.9247 254.936 81.5466L251.885 85.5078L248.834 89.4689C251.002 91.1392 252.879 93.171 254.466 95.5963L258.65 92.8586ZM251.885 85.5078L254.962 81.5668C251.883 79.1623 248.407 77.3503 244.578 76.115L243.043 80.8735L241.508 85.6321C244.283 86.5274 246.703 87.8049 248.808 89.4487L251.885 85.5078ZM243.043 80.8735L244.578 76.115C240.717 74.8696 236.57 74.2755 232.176 74.2755V79.2755V84.2755C235.667 84.2755 238.764 84.7468 241.508 85.6321L243.043 80.8735ZM232.176 79.2755V74.2755C224.802 74.2755 217.994 76.1947 211.877 80.0538L214.545 84.2826L217.213 88.5114C221.678 85.6945 226.625 84.2755 232.176 84.2755V79.2755ZM214.545 84.2826L211.877 80.0538C205.676 83.9657 200.883 89.6577 197.415 96.8708L201.921 99.0376L206.427 101.204C209.208 95.4203 212.831 91.2757 217.213 88.5114L214.545 84.2826ZM201.921 99.0376L197.415 96.8708C193.88 104.221 192.233 112.981 192.233 122.955H197.233H202.233C202.233 114.036 203.711 106.851 206.427 101.204L201.921 99.0376ZM197.233 122.955H192.233C192.233 132.935 193.9 141.702 197.478 149.058L201.974 146.871L206.47 144.685C203.727 139.043 202.233 131.866 202.233 122.955H197.233ZM201.974 146.871L197.478 149.058C200.993 156.287 205.871 161.977 212.181 165.879L214.811 161.626L217.441 157.374C212.956 154.6 209.276 150.453 206.47 144.685L201.974 146.871ZM214.811 161.626L212.181 165.879C218.42 169.737 225.414 171.633 233.029 171.633V166.633V161.633C227.149 161.633 221.998 160.192 217.441 157.374L214.811 161.626ZM233.029 166.633V171.633C240.007 171.633 246.376 170.14 251.983 167.002L249.541 162.638L247.099 158.275C243.19 160.463 238.55 161.633 233.029 161.633V166.633ZM249.541 162.638L251.994 166.995C257.619 163.829 262.015 159.341 265.121 153.627L260.728 151.239L256.334 148.852C254.113 152.939 251.052 156.05 247.089 158.281L249.541 162.638ZM260.728 151.239L265.115 153.638C268.285 147.84 269.776 141.179 269.776 133.821H264.776H259.776C259.776 139.815 258.568 144.766 256.34 148.841L260.728 151.239ZM264.776 133.821L263.746 138.714L267.794 139.566L268.824 134.673L269.854 129.781L265.806 128.928L264.776 133.821ZM268.824 134.673V129.673H236.012V134.673V139.673H268.824V134.673ZM236.012 134.673H241.012V122.955H236.012H231.012V134.673H236.012ZM236.012 122.955V127.955H277.56V122.955V117.955H236.012V122.955ZM277.56 122.955H272.56V134.673H277.56H282.56V122.955H277.56ZM277.56 134.673H272.56C272.56 142.932 270.803 149.851 267.477 155.61L271.807 158.111L276.137 160.611C280.481 153.089 282.56 144.384 282.56 134.673H277.56ZM271.807 158.111L267.467 155.628C264.127 161.465 259.545 165.954 253.647 169.168L256.04 173.558L258.433 177.949C265.958 173.847 271.888 168.038 276.147 160.594L271.807 158.111ZM256.04 173.558L253.656 169.163C247.809 172.335 240.979 173.991 233.029 173.991V178.991V183.991C242.408 183.991 250.919 182.025 258.424 177.953L256.04 173.558ZM233.029 178.991V173.991C224.186 173.991 216.636 171.921 210.206 167.926L207.567 172.173L204.928 176.42C213.129 181.516 222.553 183.991 233.029 183.991V178.991ZM207.567 172.173L210.215 167.932C203.799 163.926 198.726 158.207 195.016 150.594L190.522 152.784L186.027 154.974C190.485 164.123 196.775 171.329 204.919 176.414L207.567 172.173ZM190.522 152.784L195.024 150.609C191.371 143.048 189.449 133.881 189.449 122.955H184.449H179.449C179.449 135.039 181.575 145.759 186.019 154.959L190.522 152.784ZM184.449 122.955H189.449C189.449 114.767 190.544 107.557 192.652 101.265L187.911 99.6768L183.171 98.0883C180.662 105.575 179.449 113.884 179.449 122.955H184.449ZM187.911 99.6768L192.648 101.28C194.808 94.8967 197.805 89.597 201.58 85.2866L197.819 81.9922L194.058 78.6977C189.311 84.1174 185.702 90.6075 183.175 98.0738L187.911 99.6768ZM197.819 81.9922L201.58 85.2866C205.372 80.958 209.828 77.6675 214.98 75.374L212.947 70.8061L210.914 66.2382C204.419 69.1293 198.789 73.2962 194.058 78.6977L197.819 81.9922ZM212.947 70.8061L214.98 75.374C220.104 73.0932 225.812 71.9176 232.176 71.9176V66.9176V61.9176C224.549 61.9176 217.438 63.3342 210.914 66.2382L212.947 70.8061ZM232.176 66.9176V71.9176C237.419 71.9176 242.217 72.7091 246.611 74.247L248.263 69.5277L249.915 64.8084C244.366 62.8661 238.44 61.9176 232.176 61.9176V66.9176ZM248.263 69.5277L246.652 74.2609C251.131 75.7859 255.063 77.9411 258.488 80.7123L261.633 76.8252L264.778 72.9382C260.391 69.3884 255.409 66.6785 249.874 64.7944L248.263 69.5277ZM261.633 76.8252L258.527 80.7433C261.992 83.4907 264.88 86.7811 267.203 90.6422L271.487 88.0646L275.772 85.487C272.839 80.6122 269.157 76.4098 264.739 72.9072L261.633 76.8252ZM271.487 88.0646L267.212 90.6577C269.51 94.445 271.116 98.6854 272.007 103.423L276.921 102.5L281.835 101.577C280.736 95.7322 278.721 90.349 275.763 85.4715L271.487 88.0646ZM276.921 102.5V97.5H263.284V102.5V107.5H276.921V102.5ZM300.185 177.5H295.185V182.5H300.185V177.5ZM300.185 68.4091V63.4091H295.185V68.4091H300.185ZM358.033 72.777L355.683 77.1903L355.694 77.1963L355.706 77.2022L358.033 72.777ZM370.178 84.6555L365.744 86.9662L365.744 86.9662L370.178 84.6555ZM370.178 118.959L365.758 116.623L365.758 116.623L370.178 118.959ZM358.086 130.678L360.38 135.121L360.392 135.115L360.403 135.109L358.086 130.678ZM307.429 134.886H302.429V139.886H307.429V134.886ZM307.429 122.955V117.955H302.429V122.955H307.429ZM350.895 120.398L348.749 115.882L348.74 115.886L348.732 115.89L350.895 120.398ZM358.672 113.153L354.231 110.858L354.226 110.867L354.221 110.877L358.672 113.153ZM350.842 82.8444L348.588 87.3077L348.606 87.3166L348.624 87.3254L350.842 82.8444ZM313.395 80.1278V75.1278H308.395V80.1278H313.395ZM313.395 177.5V182.5H318.395V177.5H313.395ZM351.535 128.494L355.92 126.092L354.497 123.494H351.535V128.494ZM378.381 177.5V182.5H386.821L382.766 175.098L378.381 177.5ZM363.04 177.5L358.639 179.873L360.056 182.5H363.04V177.5ZM336.62 128.494V123.494H328.244L332.219 130.867L336.62 128.494ZM300.185 177.5H305.185V68.4091H300.185H295.185V177.5H300.185ZM300.185 68.4091V73.4091H337.046V68.4091V63.4091H300.185V68.4091ZM337.046 68.4091V73.4091C345.041 73.4091 351.158 74.7809 355.683 77.1903L358.033 72.777L360.383 68.3636C353.971 64.9492 346.096 63.4091 337.046 63.4091V68.4091ZM358.033 72.777L355.706 77.2022C360.355 79.6478 363.628 82.9052 365.744 86.9662L370.178 84.6555L374.612 82.3448C371.473 76.3205 366.649 71.659 360.361 68.3517L358.033 72.777ZM370.178 84.6555L365.744 86.9662C367.954 91.2069 369.12 96.1317 369.12 101.861H374.12H379.12C379.12 94.7347 377.658 88.1893 374.612 82.3448L370.178 84.6555ZM374.12 101.861H369.12C369.12 107.591 367.953 112.469 365.758 116.623L370.178 118.959L374.598 121.296C377.658 115.507 379.12 108.985 379.12 101.861H374.12ZM370.178 118.959L365.758 116.623C363.646 120.618 360.391 123.831 355.77 126.247L358.086 130.678L360.403 135.109C366.649 131.843 371.455 127.244 374.598 121.296L370.178 118.959ZM358.086 130.678L355.792 126.236C351.287 128.562 345.201 129.886 337.259 129.886V134.886V139.886C346.22 139.886 354.02 138.405 360.38 135.121L358.086 130.678ZM337.259 134.886V129.886H307.429V134.886V139.886H337.259V134.886ZM307.429 134.886H312.429V122.955H307.429H302.429V134.886H307.429ZM307.429 122.955V127.955H336.833V122.955V117.955H307.429V122.955ZM336.833 122.955V127.955C343.077 127.955 348.588 127.051 353.059 124.905L350.895 120.398L348.732 115.89C346.1 117.153 342.237 117.955 336.833 117.955V122.955ZM350.895 120.398L353.042 124.914C357.485 122.802 360.96 119.662 363.124 115.43L358.672 113.153L354.221 110.877C353.189 112.895 351.479 114.584 348.749 115.882L350.895 120.398ZM358.672 113.153L363.114 115.449C365.189 111.435 366.123 106.848 366.123 101.861H361.123H356.123C356.123 105.609 355.423 108.55 354.231 110.858L358.672 113.153ZM361.123 101.861H366.123C366.123 96.8672 365.187 92.2568 363.144 88.1723L358.672 90.4083L354.2 92.6444C355.425 95.094 356.123 98.1185 356.123 101.861H361.123ZM358.672 90.4083L363.144 88.1723C360.977 83.8374 357.524 80.5731 353.06 78.3635L350.842 82.8444L348.624 87.3254C351.333 88.6669 353.101 90.4452 354.2 92.6444L358.672 90.4083ZM350.842 82.8444L353.096 78.3812C348.561 76.0912 342.96 75.1278 336.62 75.1278V80.1278V85.1278C342.07 85.1278 345.95 85.9755 348.588 87.3077L350.842 82.8444ZM336.62 80.1278V75.1278H313.395V80.1278V85.1278H336.62V80.1278ZM313.395 80.1278H308.395V177.5H313.395H318.395V80.1278H313.395ZM313.395 177.5V172.5H300.185V177.5V182.5H313.395V177.5ZM351.535 128.494L347.149 130.897L373.996 179.902L378.381 177.5L382.766 175.098L355.92 126.092L351.535 128.494ZM378.381 177.5V172.5H363.04V177.5V182.5H378.381V177.5ZM363.04 177.5L367.441 175.127L341.021 126.122L336.62 128.494L332.219 130.867L358.639 179.873L363.04 177.5ZM336.62 128.494V133.494H351.535V128.494V123.494H336.62V128.494ZM481.946 152.784L477.466 150.563L477.466 150.563L481.946 152.784ZM464.847 172.173L467.504 176.409L467.504 176.409L464.847 172.173ZM415.202 172.173L412.545 176.409L412.545 176.409L415.202 172.173ZM398.103 152.784L402.583 150.563L402.583 150.563L398.103 152.784ZM464.847 73.7358L467.504 69.5004L467.504 69.5004L464.847 73.7358ZM481.946 93.125L477.466 95.3458L477.466 95.3458L481.946 93.125ZM470.653 99.0376L466.147 101.204L466.152 101.214L466.157 101.224L470.653 99.0376ZM457.922 84.2826L455.267 88.5194L455.273 88.5234L455.28 88.5274L457.922 84.2826ZM422.073 84.2826L419.431 80.0379L419.425 80.0419L419.418 80.0458L422.073 84.2826ZM409.343 99.0376L404.846 96.8508L404.841 96.8608L404.837 96.8708L409.343 99.0376ZM409.343 146.871L404.837 149.038L404.841 149.048L404.846 149.058L409.343 146.871ZM422.073 161.626L419.418 165.863L419.425 165.867L419.431 165.871L422.073 161.626ZM457.922 161.626L455.28 157.382L455.273 157.386L455.267 157.39L457.922 161.626ZM470.653 146.871L466.157 144.685L466.152 144.695L466.147 144.705L470.653 146.871ZM488.178 122.955H483.178C483.178 133.864 481.209 143.013 477.466 150.563L481.946 152.784L486.425 155.005C490.992 145.793 493.178 135.057 493.178 122.955H488.178ZM481.946 152.784L477.466 150.563C473.681 158.197 468.58 163.928 462.189 167.938L464.847 172.173L467.504 176.409C475.603 171.327 481.9 164.132 486.425 155.005L481.946 152.784ZM464.847 172.173L462.189 167.938C455.811 171.94 448.474 173.991 440.024 173.991V178.991V183.991C450.183 183.991 459.394 181.497 467.504 176.409L464.847 172.173ZM440.024 178.991V173.991C431.575 173.991 424.238 171.94 417.859 167.938L415.202 172.173L412.545 176.409C420.655 181.497 429.866 183.991 440.024 183.991V178.991ZM415.202 172.173L417.859 167.938C411.469 163.928 406.368 158.197 402.583 150.563L398.103 152.784L393.624 155.005C398.149 164.132 404.446 171.327 412.545 176.409L415.202 172.173ZM398.103 152.784L402.583 150.563C398.84 143.013 396.871 133.864 396.871 122.955H391.871H386.871C386.871 135.057 389.057 145.793 393.624 155.005L398.103 152.784ZM391.871 122.955H396.871C396.871 112.045 398.84 102.896 402.583 95.3458L398.103 93.125L393.624 90.9041C389.057 100.116 386.871 110.852 386.871 122.955H391.871ZM398.103 93.125L402.583 95.3458C406.368 87.7117 411.469 81.9806 417.859 77.9711L415.202 73.7358L412.545 69.5004C404.446 74.5818 398.149 81.7768 393.624 90.9041L398.103 93.125ZM415.202 73.7358L417.859 77.9711C424.238 73.969 431.575 71.9176 440.024 71.9176V66.9176V61.9176C429.866 61.9176 420.655 64.4116 412.545 69.5004L415.202 73.7358ZM440.024 66.9176V71.9176C448.474 71.9176 455.811 73.969 462.189 77.9711L464.847 73.7358L467.504 69.5004C459.394 64.4116 450.183 61.9176 440.024 61.9176V66.9176ZM464.847 73.7358L462.189 77.9711C468.58 81.9806 473.681 87.7117 477.466 95.3458L481.946 93.125L486.425 90.9041C481.9 81.7768 475.603 74.5818 467.504 69.5004L464.847 73.7358ZM481.946 93.125L477.466 95.3458C481.209 102.896 483.178 112.045 483.178 122.955H488.178H493.178C493.178 110.852 490.992 100.116 486.425 90.9041L481.946 93.125ZM475.394 122.955H480.394C480.394 112.974 478.727 104.207 475.149 96.8508L470.653 99.0376L466.157 101.224C468.9 106.866 470.394 114.043 470.394 122.955H475.394ZM470.653 99.0376L475.159 96.8708C471.682 89.6409 466.842 83.9458 460.565 80.0379L457.922 84.2826L455.28 88.5274C459.727 91.2956 463.374 95.4372 466.147 101.204L470.653 99.0376ZM457.922 84.2826L460.577 80.0458C454.413 76.1832 447.519 74.2755 440.024 74.2755V79.2755V84.2755C445.74 84.2755 450.777 85.7059 455.267 88.5194L457.922 84.2826ZM440.024 79.2755V74.2755C432.53 74.2755 425.623 76.1831 419.431 80.0379L422.073 84.2826L424.716 88.5274C429.248 85.7061 434.309 84.2755 440.024 84.2755V79.2755ZM422.073 84.2826L419.418 80.0458C413.185 83.9521 408.354 89.6386 404.846 96.8508L409.343 99.0376L413.839 101.224C416.652 95.4395 420.309 91.2893 424.728 88.5194L422.073 84.2826ZM409.343 99.0376L404.837 96.8708C401.302 104.221 399.655 112.981 399.655 122.955H404.655H409.655C409.655 114.036 411.133 106.851 413.849 101.204L409.343 99.0376ZM404.655 122.955H399.655C399.655 132.928 401.302 141.688 404.837 149.038L409.343 146.871L413.849 144.705C411.133 139.058 409.655 131.873 409.655 122.955H404.655ZM409.343 146.871L404.846 149.058C408.354 156.27 413.185 161.957 419.418 165.863L422.073 161.626L424.728 157.39C420.309 154.62 416.652 150.47 413.839 144.685L409.343 146.871ZM422.073 161.626L419.431 165.871C425.623 169.726 432.53 171.633 440.024 171.633V166.633V161.633C434.309 161.633 429.248 160.203 424.716 157.382L422.073 161.626ZM440.024 166.633V171.633C447.519 171.633 454.413 169.726 460.577 165.863L457.922 161.626L455.267 157.39C450.777 160.203 445.74 161.633 440.024 161.633V166.633ZM457.922 161.626L460.565 165.871C466.842 161.963 471.682 156.268 475.159 149.038L470.653 146.871L466.147 144.705C463.374 150.472 459.727 154.613 455.28 157.382L457.922 161.626ZM470.653 146.871L475.149 149.058C478.727 141.702 480.394 132.935 480.394 122.955H475.394H470.394C470.394 131.866 468.9 139.043 466.157 144.685L470.653 146.871ZM598.174 102.5V107.5H604.138L603.098 101.627L598.174 102.5ZM584.964 102.5L580.066 103.507L580.887 107.5H584.964V102.5ZM580.862 92.4858L576.702 95.2593L576.714 95.2769L576.726 95.2945L580.862 92.4858ZM573.831 85.2414L570.89 89.2851L570.92 89.3066L570.95 89.3277L573.831 85.2414ZM564.723 80.767L563.295 85.5589L563.295 85.5589L564.723 80.767ZM536.331 84.2826L533.689 80.0379L533.682 80.0419L533.676 80.0458L536.331 84.2826ZM523.6 99.0376L519.104 96.8508L519.099 96.8608L519.094 96.8708L523.6 99.0376ZM523.6 146.871L519.094 149.038L519.099 149.048L519.104 149.058L523.6 146.871ZM536.331 161.626L533.676 165.863L533.682 165.867L533.689 165.871L536.331 161.626ZM564.723 165.142L563.295 160.35L563.295 160.35L564.723 165.142ZM573.831 160.721L576.737 164.79L576.747 164.782L573.831 160.721ZM580.862 153.423L576.71 150.638L576.702 150.65L580.862 153.423ZM584.964 143.409V138.409H580.895L580.068 142.393L584.964 143.409ZM598.174 143.409L603.097 144.287L604.145 138.409H598.174V143.409ZM592.741 158.377L588.447 155.815L588.447 155.815L592.741 158.377ZM582.94 169.616L586.02 173.555L586.031 173.547L586.042 173.538L582.94 169.616ZM569.783 176.594L568.223 171.844L568.212 171.848L569.783 176.594ZM529.46 172.173L526.802 176.409L526.802 176.409L529.46 172.173ZM512.361 152.784L516.841 150.563L516.841 150.563L512.361 152.784ZM569.783 69.3146L568.212 74.0615L568.223 74.0649L569.783 69.3146ZM582.94 76.3458L579.838 80.2675L579.849 80.2762L579.86 80.2849L582.94 76.3458ZM592.741 87.5319L588.447 90.0942L588.452 90.1019L588.457 90.1095L592.741 87.5319ZM598.174 102.5V97.5H584.964V102.5V107.5H598.174V102.5ZM584.964 102.5L589.862 101.493C588.963 97.1231 587.362 93.1577 584.999 89.677L580.862 92.4858L576.726 95.2945C578.269 97.5666 579.402 100.277 580.066 103.507L584.964 102.5ZM580.862 92.4858L585.023 89.7123C582.77 86.3336 579.996 83.4705 576.713 81.1552L573.831 85.2414L570.95 89.3277C573.206 90.9186 575.119 92.885 576.702 95.2593L580.862 92.4858ZM573.831 85.2414L576.772 81.1978C573.565 78.8657 570.015 77.1263 566.15 75.9751L564.723 80.767L563.295 85.5589C566.107 86.3964 568.628 87.6399 570.89 89.2851L573.831 85.2414ZM564.723 80.767L566.15 75.9751C562.33 74.8373 558.368 74.2755 554.282 74.2755V79.2755V84.2755C557.44 84.2755 560.439 84.708 563.295 85.5589L564.723 80.767ZM554.282 79.2755V74.2755C546.788 74.2755 539.881 76.1831 533.689 80.0379L536.331 84.2826L538.974 88.5274C543.506 85.7061 548.566 84.2755 554.282 84.2755V79.2755ZM536.331 84.2826L533.676 80.0458C527.443 83.9521 522.612 89.6386 519.104 96.8508L523.6 99.0376L528.097 101.224C530.91 95.4395 534.566 91.2893 538.986 88.5194L536.331 84.2826ZM523.6 99.0376L519.094 96.8708C515.56 104.221 513.913 112.981 513.913 122.955H518.913H523.913C523.913 114.036 525.391 106.851 528.106 101.204L523.6 99.0376ZM518.913 122.955H513.913C513.913 132.928 515.56 141.688 519.094 149.038L523.6 146.871L528.106 144.705C525.391 139.058 523.913 131.873 523.913 122.955H518.913ZM523.6 146.871L519.104 149.058C522.612 156.27 527.443 161.957 533.676 165.863L536.331 161.626L538.986 157.39C534.566 154.62 530.91 150.47 528.097 144.685L523.6 146.871ZM536.331 161.626L533.689 165.871C539.881 169.726 546.788 171.633 554.282 171.633V166.633V161.633C548.566 161.633 543.506 160.203 538.974 157.382L536.331 161.626ZM554.282 166.633V171.633C558.368 171.633 562.33 171.072 566.15 169.934L564.723 165.142L563.295 160.35C560.439 161.201 557.44 161.633 554.282 161.633V166.633ZM564.723 165.142L566.15 169.934C569.998 168.788 573.537 167.075 576.737 164.79L573.831 160.721L570.925 156.652C568.657 158.273 566.123 159.508 563.295 160.35L564.723 165.142ZM573.831 160.721L576.747 164.782C580.013 162.438 582.776 159.567 585.023 156.197L580.862 153.423L576.702 150.65C575.114 153.033 573.189 155.027 570.915 156.659L573.831 160.721ZM580.862 153.423L585.015 156.208C587.361 152.711 588.96 148.76 589.86 144.425L584.964 143.409L580.068 142.393C579.406 145.586 578.27 148.312 576.71 150.638L580.862 153.423ZM584.964 143.409V148.409H598.174V143.409V138.409H584.964V143.409ZM598.174 143.409L593.252 142.531C592.353 147.574 590.735 151.982 588.447 155.815L592.741 158.377L597.035 160.939C600.003 155.966 602.007 150.395 603.097 144.287L598.174 143.409ZM592.741 158.377L588.447 155.815C586.122 159.712 583.254 162.993 579.838 165.695L582.94 169.616L586.042 173.538C590.439 170.06 594.105 165.849 597.035 160.939L592.741 158.377ZM582.94 169.616L579.86 165.677C576.425 168.363 572.556 170.421 568.223 171.844L569.783 176.594L571.343 181.345C576.74 179.572 581.643 176.977 586.02 173.555L582.94 169.616ZM569.783 176.594L568.212 171.848C563.929 173.265 559.296 173.991 554.282 173.991V178.991V183.991C560.276 183.991 565.977 183.12 571.354 181.341L569.783 176.594ZM554.282 178.991V173.991C545.833 173.991 538.496 171.94 532.117 167.938L529.46 172.173L526.802 176.409C534.913 181.497 544.124 183.991 554.282 183.991V178.991ZM529.46 172.173L532.117 167.938C525.727 163.928 520.625 158.197 516.841 150.563L512.361 152.784L507.881 155.005C512.406 164.132 518.704 171.327 526.802 176.409L529.46 172.173ZM512.361 152.784L516.841 150.563C513.098 143.013 511.129 133.864 511.129 122.955H506.129H501.129C501.129 135.057 503.315 145.793 507.881 155.005L512.361 152.784ZM506.129 122.955H511.129C511.129 112.045 513.098 102.896 516.841 95.3458L512.361 93.125L507.881 90.9041C503.315 100.116 501.129 110.852 501.129 122.955H506.129ZM512.361 93.125L516.841 95.3458C520.625 87.7117 525.727 81.9806 532.117 77.9711L529.46 73.7358L526.802 69.5004C518.704 74.5818 512.406 81.7768 507.881 90.9041L512.361 93.125ZM529.46 73.7358L532.117 77.9711C538.496 73.969 545.833 71.9176 554.282 71.9176V66.9176V61.9176C544.124 61.9176 534.913 64.4116 526.802 69.5004L529.46 73.7358ZM554.282 66.9176V71.9176C559.296 71.9176 563.929 72.6443 568.212 74.0615L569.783 69.3146L571.354 64.5677C565.977 62.7888 560.276 61.9176 554.282 61.9176V66.9176ZM569.783 69.3146L568.223 74.0649C572.545 75.4847 576.406 77.553 579.838 80.2675L582.94 76.3458L586.042 72.4242C581.661 68.9597 576.751 66.3405 571.343 64.5643L569.783 69.3146ZM582.94 76.3458L579.86 80.2849C583.264 82.9458 586.125 86.2023 588.447 90.0942L592.741 87.5319L597.035 84.9696C594.102 80.0548 590.429 75.8539 586.02 72.4068L582.94 76.3458ZM592.741 87.5319L588.457 90.1095C590.734 93.8947 592.351 98.2936 593.251 103.372L598.174 102.5L603.098 101.627C602.009 95.4847 600.004 89.9049 597.025 84.9543L592.741 87.5319ZM705.334 152.784L700.855 150.563L700.855 150.563L705.334 152.784ZM688.236 172.173L690.893 176.409L690.893 176.409L688.236 172.173ZM638.591 172.173L635.933 176.409L635.933 176.409L638.591 172.173ZM621.492 152.784L625.972 150.563L625.972 150.563L621.492 152.784ZM688.236 73.7358L690.893 69.5004L690.893 69.5004L688.236 73.7358ZM705.334 93.125L700.855 95.3458L700.855 95.3458L705.334 93.125ZM694.042 99.0376L689.536 101.204L689.54 101.214L689.545 101.224L694.042 99.0376ZM681.311 84.2826L678.656 88.5194L678.662 88.5234L678.668 88.5274L681.311 84.2826ZM645.462 84.2826L642.82 80.0379L642.813 80.0419L642.807 80.0458L645.462 84.2826ZM632.731 99.0376L628.235 96.8508L628.23 96.8608L628.225 96.8708L632.731 99.0376ZM632.731 146.871L628.225 149.038L628.23 149.048L628.235 149.058L632.731 146.871ZM645.462 161.626L642.807 165.863L642.813 165.867L642.82 165.871L645.462 161.626ZM681.311 161.626L678.668 157.382L678.662 157.386L678.656 157.39L681.311 161.626ZM694.042 146.871L689.545 144.685L689.54 144.695L689.536 144.705L694.042 146.871ZM711.566 122.955H706.566C706.566 133.864 704.597 143.013 700.855 150.563L705.334 152.784L709.814 155.005C714.381 145.793 716.566 135.057 716.566 122.955H711.566ZM705.334 152.784L700.855 150.563C697.07 158.197 691.968 163.928 685.578 167.938L688.236 172.173L690.893 176.409C698.991 171.327 705.289 164.132 709.814 155.005L705.334 152.784ZM688.236 172.173L685.578 167.938C679.2 171.94 671.863 173.991 663.413 173.991V178.991V183.991C673.571 183.991 682.783 181.497 690.893 176.409L688.236 172.173ZM663.413 178.991V173.991C654.963 173.991 647.626 171.94 641.248 167.938L638.591 172.173L635.933 176.409C644.043 181.497 653.255 183.991 663.413 183.991V178.991ZM638.591 172.173L641.248 167.938C634.858 163.928 629.756 158.197 625.972 150.563L621.492 152.784L617.012 155.005C621.537 164.132 627.835 171.327 635.933 176.409L638.591 172.173ZM621.492 152.784L625.972 150.563C622.229 143.013 620.26 133.864 620.26 122.955H615.26H610.26C610.26 135.057 612.445 145.793 617.012 155.005L621.492 152.784ZM615.26 122.955H620.26C620.26 112.045 622.229 102.896 625.972 95.3458L621.492 93.125L617.012 90.9041C612.445 100.116 610.26 110.852 610.26 122.955H615.26ZM621.492 93.125L625.972 95.3458C629.756 87.7117 634.858 81.9806 641.248 77.9711L638.591 73.7358L635.933 69.5004C627.835 74.5818 621.537 81.7768 617.012 90.9041L621.492 93.125ZM638.591 73.7358L641.248 77.9711C647.626 73.969 654.963 71.9176 663.413 71.9176V66.9176V61.9176C653.255 61.9176 644.043 64.4116 635.933 69.5004L638.591 73.7358ZM663.413 66.9176V71.9176C671.863 71.9176 679.2 73.969 685.578 77.9711L688.236 73.7358L690.893 69.5004C682.783 64.4116 673.571 61.9176 663.413 61.9176V66.9176ZM688.236 73.7358L685.578 77.9711C691.968 81.9806 697.07 87.7117 700.855 95.3458L705.334 93.125L709.814 90.9041C705.289 81.7768 698.991 74.5818 690.893 69.5004L688.236 73.7358ZM705.334 93.125L700.855 95.3458C704.597 102.896 706.566 112.045 706.566 122.955H711.566H716.566C716.566 110.852 714.381 100.116 709.814 90.9041L705.334 93.125ZM698.782 122.955H703.782C703.782 112.974 702.116 104.207 698.538 96.8508L694.042 99.0376L689.545 101.224C692.289 106.866 693.782 114.043 693.782 122.955H698.782ZM694.042 99.0376L698.548 96.8708C695.071 89.6409 690.231 83.9458 683.953 80.0379L681.311 84.2826L678.668 88.5274C683.115 91.2956 686.762 95.4372 689.536 101.204L694.042 99.0376ZM681.311 84.2826L683.966 80.0458C677.802 76.1832 670.907 74.2755 663.413 74.2755V79.2755V84.2755C669.129 84.2755 674.166 85.7059 678.656 88.5194L681.311 84.2826ZM663.413 79.2755V74.2755C655.919 74.2755 649.012 76.1831 642.82 80.0379L645.462 84.2826L648.104 88.5274C652.637 85.7061 657.697 84.2755 663.413 84.2755V79.2755ZM645.462 84.2826L642.807 80.0458C636.574 83.9521 631.742 89.6386 628.235 96.8508L632.731 99.0376L637.228 101.224C640.041 95.4395 643.697 91.2893 648.117 88.5194L645.462 84.2826ZM632.731 99.0376L628.225 96.8708C624.691 104.221 623.044 112.981 623.044 122.955H628.044H633.044C633.044 114.036 634.522 106.851 637.237 101.204L632.731 99.0376ZM628.044 122.955H623.044C623.044 132.928 624.691 141.688 628.225 149.038L632.731 146.871L637.237 144.705C634.522 139.058 633.044 131.873 633.044 122.955H628.044ZM632.731 146.871L628.235 149.058C631.742 156.27 636.574 161.957 642.807 165.863L645.462 161.626L648.117 157.39C643.697 154.62 640.041 150.47 637.228 144.685L632.731 146.871ZM645.462 161.626L642.82 165.871C649.012 169.726 655.919 171.633 663.413 171.633V166.633V161.633C657.697 161.633 652.637 160.203 648.104 157.382L645.462 161.626ZM663.413 166.633V171.633C670.907 171.633 677.802 169.726 683.966 165.863L681.311 161.626L678.656 157.39C674.166 160.203 669.129 161.633 663.413 161.633V166.633ZM681.311 161.626L683.953 165.871C690.231 161.963 695.071 156.268 698.548 149.038L694.042 146.871L689.536 144.705C686.762 150.472 683.115 154.613 678.668 157.382L681.311 161.626ZM694.042 146.871L698.538 149.058C702.116 141.702 703.782 132.935 703.782 122.955H698.782H693.782C693.782 131.866 692.289 139.043 689.545 144.685L694.042 146.871ZM733.779 177.5H728.779V182.5H733.779V177.5ZM733.779 68.4091V63.4091H728.779V68.4091H733.779ZM796.101 74.9609L793.592 79.2857L793.6 79.2901L793.607 79.2946L796.101 74.9609ZM813.413 93.6576L808.929 95.8702L808.933 95.878L813.413 93.6576ZM813.36 152.092L817.84 154.312L817.844 154.304L813.36 152.092ZM795.675 170.948L798.132 175.303L798.14 175.299L798.147 175.294L795.675 170.948ZM746.989 165.781H741.989V170.781H746.989V165.781ZM802.334 99.9964L797.774 102.048L797.778 102.058L802.334 99.9964ZM789.443 85.2947L786.863 89.5775L786.872 89.5834L786.882 89.5892L789.443 85.2947ZM746.989 80.1278V75.1278H741.989V80.1278H746.989ZM767.444 177.5V172.5H733.779V177.5V182.5H767.444V177.5ZM733.779 177.5H738.779V68.4091H733.779H728.779V177.5H733.779ZM733.779 68.4091V73.4091H768.935V68.4091V63.4091H733.779V68.4091ZM768.935 68.4091V73.4091C778.826 73.4091 786.975 75.4464 793.592 79.2857L796.101 74.9609L798.61 70.6361C790.171 65.7396 780.209 63.4091 768.935 63.4091V68.4091ZM796.101 74.9609L793.607 79.2946C800.238 83.1102 805.335 88.5853 808.929 95.8702L813.413 93.6576L817.897 91.4451C813.466 82.4657 807.022 75.4764 798.595 70.6273L796.101 74.9609ZM813.413 93.6576L808.933 95.878C812.529 103.134 814.432 112.031 814.432 122.741H819.432H824.432C824.432 110.866 822.323 100.375 817.893 91.4373L813.413 93.6576ZM819.432 122.741H814.432C814.432 133.519 812.513 142.51 808.876 149.879L813.36 152.092L817.844 154.304C822.304 145.267 824.432 134.691 824.432 122.741H819.432ZM813.36 152.092L808.88 149.871C805.263 157.168 800.057 162.703 793.203 166.602L795.675 170.948L798.147 175.294C806.776 170.386 813.36 163.35 817.84 154.312L813.36 152.092ZM795.675 170.948L793.218 166.593C786.39 170.446 777.872 172.5 767.444 172.5V177.5V182.5C779.175 182.5 789.477 180.186 798.132 175.303L795.675 170.948ZM746.989 165.781V170.781H766.591V165.781V160.781H746.989V165.781ZM766.591 165.781V170.781C776.231 170.781 784.646 168.923 791.547 164.873L789.017 160.561L786.486 156.249C781.527 159.159 774.992 160.781 766.591 160.781V165.781ZM789.017 160.561L791.547 164.873C798.393 160.856 803.509 155.105 806.835 147.763L802.28 145.7L797.726 143.636C795.228 149.149 791.501 153.306 786.486 156.249L789.017 160.561ZM802.28 145.7L806.835 147.763C810.106 140.543 811.648 132.153 811.648 122.741H806.648H801.648C801.648 131.086 800.279 138.001 797.726 143.636L802.28 145.7ZM806.648 122.741H811.648C811.648 113.404 810.125 105.086 806.889 97.9351L802.334 99.9964L797.778 102.058C800.295 107.62 801.648 114.465 801.648 122.741H806.648ZM802.334 99.9964L806.893 97.9446C803.62 90.6703 798.65 84.963 792.004 81.0002L789.443 85.2947L786.882 89.5892C791.671 92.4446 795.295 96.5385 797.774 102.048L802.334 99.9964ZM789.443 85.2947L792.023 81.0119C785.339 76.9848 777.267 75.1278 768.083 75.1278V80.1278V85.1278C775.944 85.1278 782.112 86.7154 786.863 89.5775L789.443 85.2947ZM768.083 80.1278V75.1278H746.989V80.1278V85.1278H768.083V80.1278ZM746.989 80.1278H741.989V165.781H746.989H751.989V80.1278H746.989ZM841.591 177.5H836.591V182.5H841.591V177.5ZM841.591 68.4091V63.4091H836.591V68.4091H841.591ZM907.429 68.4091H912.429V63.4091H907.429V68.4091ZM907.429 80.1278V85.1278H912.429V80.1278H907.429ZM854.802 80.1278V75.1278H849.802V80.1278H854.802ZM854.802 116.989H849.802V121.989H854.802V116.989ZM904.02 116.989H909.02V111.989H904.02V116.989ZM904.02 128.707V133.707H909.02V128.707H904.02ZM854.802 128.707V123.707H849.802V128.707H854.802ZM854.802 165.781H849.802V170.781H854.802V165.781ZM908.282 165.781H913.282V160.781H908.282V165.781ZM908.282 177.5V182.5H913.282V177.5H908.282ZM841.591 177.5H846.591V68.4091H841.591H836.591V177.5H841.591ZM841.591 68.4091V73.4091H907.429V68.4091V63.4091H841.591V68.4091ZM907.429 68.4091H902.429V80.1278H907.429H912.429V68.4091H907.429ZM907.429 80.1278V75.1278H854.802V80.1278V85.1278H907.429V80.1278ZM854.802 80.1278H849.802V116.989H854.802H859.802V80.1278H854.802ZM854.802 116.989V121.989H904.02V116.989V111.989H854.802V116.989ZM904.02 116.989H899.02V128.707H904.02H909.02V116.989H904.02ZM904.02 128.707V123.707H854.802V128.707V133.707H904.02V128.707ZM854.802 128.707H849.802V165.781H854.802H859.802V128.707H854.802ZM854.802 165.781V170.781H908.282V165.781V160.781H854.802V165.781ZM908.282 165.781H903.282V177.5H908.282H913.282V165.781H908.282ZM908.282 177.5V172.5H841.591V177.5V182.5H908.282V177.5Z" fill="white" mask="url(#path-7-outside-1_8_25)"/>
<defs>
<linearGradient id="paint0_linear_8_25" x1="63.8496" y1="54.8154" x2="13.6399" y2="56.6871" gradientUnits="userSpaceOnUse">
<stop offset="0.135112" stop-color="#F4FDEA"/>
<stop offset="1" stop-color="white"/>
</linearGradient>
<linearGradient id="paint1_linear_8_25" x1="132.102" y1="54.8154" x2="182.312" y2="56.6871" gradientUnits="userSpaceOnUse">
<stop offset="0.135112" stop-color="#F4FDEA"/>
<stop offset="1" stop-color="white"/>
</linearGradient>
</defs>
</svg>
