<svg width="1010" height="212" viewBox="0 0 1010 212" fill="none" xmlns="http://www.w3.org/2000/svg">
<path d="M75.0958 141C78.2153 153.999 91.1805 155.992 97.5169 156.5V108.107V87.36V67.5328L95.046 66.0095C92.1102 66.8558 87.3448 73.9307 85.7851 81.2425L96.0208 72.6105V81.2425C92.7601 81.9195 86.2725 87.3357 84.8103 95.9677L96.0208 88.3735V108.305C95.3308 108.489 94.6747 108.8 94.0712 109.221C92.5 110.5 92 111 91 114.5C80.4495 116.531 86.3492 125.673 77.5 120C58.4908 107.814 79.97 59.3619 97.5169 48.1911V2.99992C77.0116 -2.5855 70.6752 -3.60103 58.0024 29.4037C33.4692 37.8665 1.20364 53.6444 0.033844 62.9872C-1.13596 72.3301 28.3039 83.2979 43.9012 87.36C43.4138 90.9143 39.9044 105.335 45.3635 142.707C47.7994 159.382 49.9001 166.383 56 174C63.5705 183.453 75.0958 182 75.0958 182V141Z" fill="black"/>
<path d="M119.421 141C116.302 153.999 103.336 155.992 97 156.5V108.107V87.36V67.5328L99.4709 66.0095C102.407 66.8558 107.172 73.9307 108.732 81.2425L98.4961 72.6105V81.2425C101.757 81.9195 108.244 87.3357 109.707 95.9677L98.4961 88.3735V108.305C99.1862 108.489 99.8423 108.8 100.446 109.221C102.017 110.5 102.517 111 103.517 114.5C114.067 116.531 108.168 125.673 117.017 120C136.026 107.814 114.547 59.3619 97 48.1911V2.99992C117.505 -2.5855 123.842 -3.60103 136.515 29.4037C161.048 37.8665 193.313 53.6444 194.483 62.9872C195.653 72.3301 166.213 83.2979 150.616 87.36C151.103 90.9143 154.613 105.335 149.153 142.707C146.718 159.382 144.617 166.383 138.517 174C130.946 183.453 119.421 182 119.421 182V141Z" fill="black"/>
<path d="M54.0633 47.7144C50.5539 54.2138 44.1247 78.3602 42.5 87.5C10.3305 77.8525 -2.23682 72.4946 3.13258 62.7058C5.08224 59.1515 16.943 51.2912 36.2768 46.4573C47.9865 43.5297 82.3334 38.0669 96.4685 37.5591V39.0824C75.5242 40.098 55.0382 44.1601 54.0633 47.7144Z" fill="black"/>
<path d="M138.888 47.7144C142.398 54.2138 149.375 77.8602 151 87C183.169 77.3525 195.188 72.4946 189.819 62.7058C187.869 59.1515 176.009 51.2912 156.675 46.4573C144.965 43.5297 110.618 38.0669 96.4831 37.5591L96.4831 39.0824C116.955 40.098 137.913 44.1601 138.888 47.7144Z" fill="black"/>
<mask id="path-5-outside-1_8_25" maskUnits="userSpaceOnUse" x="176" y="61" width="763" height="123" fill="black">
<rect fill="white" x="176" y="61" width="763" height="123"/>
<path d="M253.847 103.545C253.244 101.308 252.356 99.3366 251.184 97.6321C250.012 95.892 248.574 94.4183 246.869 93.2109C245.165 92.0036 243.212 91.098 241.01 90.4943C238.808 89.8551 236.393 89.5355 233.766 89.5355C228.474 89.5355 223.893 90.8139 220.023 93.3707C216.188 95.9276 213.222 99.6562 211.127 104.557C209.032 109.422 207.984 115.335 207.984 122.295C207.984 129.29 208.996 135.256 211.021 140.192C213.045 145.129 215.974 148.893 219.81 151.485C223.645 154.077 228.297 155.374 233.766 155.374C238.595 155.374 242.679 154.592 246.017 153.03C249.391 151.432 251.947 149.177 253.688 146.265C255.428 143.353 256.298 139.926 256.298 135.984L261.198 136.57H234.671V117.341H281.706V131.776C281.706 141.542 279.629 149.905 275.474 156.865C271.354 163.825 265.673 169.17 258.428 172.898C251.219 176.627 242.928 178.491 233.553 178.491C223.148 178.491 214.004 176.237 206.12 171.727C198.237 167.217 192.093 160.789 187.69 152.444C183.286 144.063 181.085 134.12 181.085 122.614C181.085 113.665 182.416 105.729 185.08 98.804C187.743 91.8437 191.454 85.9489 196.212 81.1193C201.006 76.2898 206.546 72.6321 212.832 70.1463C219.153 67.6605 225.953 66.4176 233.233 66.4176C239.554 66.4176 245.431 67.3232 250.864 69.1342C256.333 70.9453 261.163 73.5021 265.353 76.8047C269.579 80.1072 273.006 84.0312 275.634 88.5767C278.261 93.1222 279.895 98.1115 280.534 103.545H253.847ZM297.247 177V67.9091H342.311C350.478 67.9091 357.527 69.3828 363.458 72.3303C369.423 75.2422 374.022 79.4325 377.254 84.9013C380.485 90.3345 382.101 96.7798 382.101 104.237C382.101 111.801 380.45 118.229 377.147 123.52C373.845 128.776 369.157 132.788 363.085 135.558C357.012 138.293 349.821 139.66 341.512 139.66H313.014V118.886H336.611C340.588 118.886 343.909 118.371 346.572 117.341C349.271 116.276 351.313 114.678 352.698 112.547C354.083 110.381 354.775 107.611 354.775 104.237C354.775 100.864 354.083 98.076 352.698 95.8743C351.313 93.6371 349.271 91.968 346.572 90.8672C343.873 89.7308 340.553 89.1626 336.611 89.1626H323.614V177H297.247ZM358.664 127.142L385.83 177H357.066L330.432 127.142H358.664ZM499.528 122.455C499.528 134.457 497.22 144.631 492.604 152.977C487.987 161.322 481.737 167.661 473.854 171.993C466.006 176.325 457.199 178.491 447.433 178.491C437.632 178.491 428.807 176.308 420.959 171.94C413.111 167.572 406.879 161.233 402.263 152.923C397.682 144.578 395.391 134.422 395.391 122.455C395.391 110.452 397.682 100.278 402.263 91.9325C406.879 83.5874 413.111 77.2486 420.959 72.9162C428.807 68.5838 437.632 66.4176 447.433 66.4176C457.199 66.4176 466.006 68.5838 473.854 72.9162C481.737 77.2486 487.987 83.5874 492.604 91.9325C497.22 100.278 499.528 110.452 499.528 122.455ZM472.575 122.455C472.575 115.352 471.563 109.351 469.539 104.45C467.55 99.5497 464.674 95.8388 460.91 93.3175C457.181 90.7962 452.689 89.5355 447.433 89.5355C442.213 89.5355 437.721 90.7962 433.957 93.3175C430.192 95.8388 427.298 99.5497 425.274 104.45C423.285 109.351 422.291 115.352 422.291 122.455C422.291 129.557 423.285 135.558 425.274 140.459C427.298 145.359 430.192 149.07 433.957 151.592C437.721 154.113 442.213 155.374 447.433 155.374C452.689 155.374 457.181 154.113 460.91 151.592C464.674 149.07 467.55 145.359 469.539 140.459C471.563 135.558 472.575 129.557 472.575 122.455ZM613.946 107.433H587.312C586.957 104.699 586.229 102.231 585.128 100.029C584.028 97.8274 582.572 95.9453 580.76 94.3828C578.949 92.8203 576.801 91.6307 574.315 90.8139C571.865 89.9616 569.148 89.5355 566.165 89.5355C560.874 89.5355 556.311 90.8317 552.476 93.424C548.676 96.0163 545.746 99.7628 543.687 104.663C541.662 109.564 540.65 115.494 540.65 122.455C540.65 129.699 541.68 135.771 543.74 140.672C545.835 145.537 548.765 149.212 552.529 151.698C556.329 154.148 560.821 155.374 566.006 155.374C568.917 155.374 571.563 155.001 573.942 154.255C576.357 153.509 578.47 152.426 580.281 151.006C582.128 149.55 583.637 147.792 584.809 145.732C586.016 143.637 586.851 141.276 587.312 138.648L613.946 138.808C613.484 143.637 612.082 148.396 609.738 153.083C607.43 157.771 604.251 162.05 600.203 165.92C596.155 169.756 591.219 172.81 585.395 175.082C579.606 177.355 572.966 178.491 565.473 178.491C555.601 178.491 546.758 176.325 538.946 171.993C531.169 167.625 525.025 161.268 520.515 152.923C516.006 144.578 513.751 134.422 513.751 122.455C513.751 110.452 516.041 100.278 520.622 91.9325C525.203 83.5874 531.4 77.2486 539.212 72.9162C547.025 68.5838 555.778 66.4176 565.473 66.4176C572.078 66.4176 578.186 67.3409 583.797 69.1875C589.408 70.9986 594.344 73.6619 598.605 77.1776C602.866 80.6577 606.329 84.9368 608.992 90.0149C611.655 95.093 613.307 100.899 613.946 107.433ZM731.999 122.455C731.999 134.457 729.691 144.631 725.074 152.977C720.458 161.322 714.208 167.661 706.324 171.993C698.476 176.325 689.669 178.491 679.904 178.491C670.103 178.491 661.278 176.308 653.43 171.94C645.582 167.572 639.35 161.233 634.733 152.923C630.152 144.578 627.862 134.422 627.862 122.455C627.862 110.452 630.152 100.278 634.733 91.9325C639.35 83.5874 645.582 77.2486 653.43 72.9162C661.278 68.5838 670.103 66.4176 679.904 66.4176C689.669 66.4176 698.476 68.5838 706.324 72.9162C714.208 77.2486 720.458 83.5874 725.074 91.9325C729.691 100.278 731.999 110.452 731.999 122.455ZM705.046 122.455C705.046 115.352 704.034 109.351 702.01 104.45C700.021 99.5497 697.145 95.8388 693.38 93.3175C689.652 90.7962 685.159 89.5355 679.904 89.5355C674.684 89.5355 670.191 90.7962 666.427 93.3175C662.663 95.8388 659.769 99.5497 657.745 104.45C655.756 109.351 654.762 115.352 654.762 122.455C654.762 129.557 655.756 135.558 657.745 140.459C659.769 145.359 662.663 149.07 666.427 151.592C670.191 154.113 674.684 155.374 679.904 155.374C685.159 155.374 689.652 154.113 693.38 151.592C697.145 149.07 700.021 145.359 702.01 140.459C704.034 135.558 705.046 129.557 705.046 122.455ZM787.716 177H747.393V67.9091H787.663C798.778 67.9091 808.348 70.093 816.374 74.4609C824.435 78.7933 830.65 85.0433 835.017 93.2109C839.385 101.343 841.569 111.073 841.569 122.401C841.569 133.765 839.385 143.531 835.017 151.698C830.685 159.866 824.488 166.134 816.427 170.501C808.366 174.834 798.796 177 787.716 177ZM773.76 154.521H786.704C792.812 154.521 797.979 153.491 802.205 151.432C806.466 149.337 809.68 145.945 811.846 141.258C814.048 136.535 815.149 130.249 815.149 122.401C815.149 114.553 814.048 108.303 811.846 103.651C809.645 98.9638 806.395 95.5902 802.098 93.5305C797.837 91.4354 792.581 90.3878 786.331 90.3878H773.76V154.521ZM856.963 177V67.9091H933.029V89.3224H883.331V111.695H929.14V133.161H883.331V155.587H933.029V177H856.963Z"/>
</mask>
<path d="M253.847 103.545C253.244 101.308 252.356 99.3366 251.184 97.6321C250.012 95.892 248.574 94.4183 246.869 93.2109C245.165 92.0036 243.212 91.098 241.01 90.4943C238.808 89.8551 236.393 89.5355 233.766 89.5355C228.474 89.5355 223.893 90.8139 220.023 93.3707C216.188 95.9276 213.222 99.6562 211.127 104.557C209.032 109.422 207.984 115.335 207.984 122.295C207.984 129.29 208.996 135.256 211.021 140.192C213.045 145.129 215.974 148.893 219.81 151.485C223.645 154.077 228.297 155.374 233.766 155.374C238.595 155.374 242.679 154.592 246.017 153.03C249.391 151.432 251.947 149.177 253.688 146.265C255.428 143.353 256.298 139.926 256.298 135.984L261.198 136.57H234.671V117.341H281.706V131.776C281.706 141.542 279.629 149.905 275.474 156.865C271.354 163.825 265.673 169.17 258.428 172.898C251.219 176.627 242.928 178.491 233.553 178.491C223.148 178.491 214.004 176.237 206.12 171.727C198.237 167.217 192.093 160.789 187.69 152.444C183.286 144.063 181.085 134.12 181.085 122.614C181.085 113.665 182.416 105.729 185.08 98.804C187.743 91.8437 191.454 85.9489 196.212 81.1193C201.006 76.2898 206.546 72.6321 212.832 70.1463C219.153 67.6605 225.953 66.4176 233.233 66.4176C239.554 66.4176 245.431 67.3232 250.864 69.1342C256.333 70.9453 261.163 73.5021 265.353 76.8047C269.579 80.1072 273.006 84.0312 275.634 88.5767C278.261 93.1222 279.895 98.1115 280.534 103.545H253.847ZM297.247 177V67.9091H342.311C350.478 67.9091 357.527 69.3828 363.458 72.3303C369.423 75.2422 374.022 79.4325 377.254 84.9013C380.485 90.3345 382.101 96.7798 382.101 104.237C382.101 111.801 380.45 118.229 377.147 123.52C373.845 128.776 369.157 132.788 363.085 135.558C357.012 138.293 349.821 139.66 341.512 139.66H313.014V118.886H336.611C340.588 118.886 343.909 118.371 346.572 117.341C349.271 116.276 351.313 114.678 352.698 112.547C354.083 110.381 354.775 107.611 354.775 104.237C354.775 100.864 354.083 98.076 352.698 95.8743C351.313 93.6371 349.271 91.968 346.572 90.8672C343.873 89.7308 340.553 89.1626 336.611 89.1626H323.614V177H297.247ZM358.664 127.142L385.83 177H357.066L330.432 127.142H358.664ZM499.528 122.455C499.528 134.457 497.22 144.631 492.604 152.977C487.987 161.322 481.737 167.661 473.854 171.993C466.006 176.325 457.199 178.491 447.433 178.491C437.632 178.491 428.807 176.308 420.959 171.94C413.111 167.572 406.879 161.233 402.263 152.923C397.682 144.578 395.391 134.422 395.391 122.455C395.391 110.452 397.682 100.278 402.263 91.9325C406.879 83.5874 413.111 77.2486 420.959 72.9162C428.807 68.5838 437.632 66.4176 447.433 66.4176C457.199 66.4176 466.006 68.5838 473.854 72.9162C481.737 77.2486 487.987 83.5874 492.604 91.9325C497.22 100.278 499.528 110.452 499.528 122.455ZM472.575 122.455C472.575 115.352 471.563 109.351 469.539 104.45C467.55 99.5497 464.674 95.8388 460.91 93.3175C457.181 90.7962 452.689 89.5355 447.433 89.5355C442.213 89.5355 437.721 90.7962 433.957 93.3175C430.192 95.8388 427.298 99.5497 425.274 104.45C423.285 109.351 422.291 115.352 422.291 122.455C422.291 129.557 423.285 135.558 425.274 140.459C427.298 145.359 430.192 149.07 433.957 151.592C437.721 154.113 442.213 155.374 447.433 155.374C452.689 155.374 457.181 154.113 460.91 151.592C464.674 149.07 467.55 145.359 469.539 140.459C471.563 135.558 472.575 129.557 472.575 122.455ZM613.946 107.433H587.312C586.957 104.699 586.229 102.231 585.128 100.029C584.028 97.8274 582.572 95.9453 580.76 94.3828C578.949 92.8203 576.801 91.6307 574.315 90.8139C571.865 89.9616 569.148 89.5355 566.165 89.5355C560.874 89.5355 556.311 90.8317 552.476 93.424C548.676 96.0163 545.746 99.7628 543.687 104.663C541.662 109.564 540.65 115.494 540.65 122.455C540.65 129.699 541.68 135.771 543.74 140.672C545.835 145.537 548.765 149.212 552.529 151.698C556.329 154.148 560.821 155.374 566.006 155.374C568.917 155.374 571.563 155.001 573.942 154.255C576.357 153.509 578.47 152.426 580.281 151.006C582.128 149.55 583.637 147.792 584.809 145.732C586.016 143.637 586.851 141.276 587.312 138.648L613.946 138.808C613.484 143.637 612.082 148.396 609.738 153.083C607.43 157.771 604.251 162.05 600.203 165.92C596.155 169.756 591.219 172.81 585.395 175.082C579.606 177.355 572.966 178.491 565.473 178.491C555.601 178.491 546.758 176.325 538.946 171.993C531.169 167.625 525.025 161.268 520.515 152.923C516.006 144.578 513.751 134.422 513.751 122.455C513.751 110.452 516.041 100.278 520.622 91.9325C525.203 83.5874 531.4 77.2486 539.212 72.9162C547.025 68.5838 555.778 66.4176 565.473 66.4176C572.078 66.4176 578.186 67.3409 583.797 69.1875C589.408 70.9986 594.344 73.6619 598.605 77.1776C602.866 80.6577 606.329 84.9368 608.992 90.0149C611.655 95.093 613.307 100.899 613.946 107.433ZM731.999 122.455C731.999 134.457 729.691 144.631 725.074 152.977C720.458 161.322 714.208 167.661 706.324 171.993C698.476 176.325 689.669 178.491 679.904 178.491C670.103 178.491 661.278 176.308 653.43 171.94C645.582 167.572 639.35 161.233 634.733 152.923C630.152 144.578 627.862 134.422 627.862 122.455C627.862 110.452 630.152 100.278 634.733 91.9325C639.35 83.5874 645.582 77.2486 653.43 72.9162C661.278 68.5838 670.103 66.4176 679.904 66.4176C689.669 66.4176 698.476 68.5838 706.324 72.9162C714.208 77.2486 720.458 83.5874 725.074 91.9325C729.691 100.278 731.999 110.452 731.999 122.455ZM705.046 122.455C705.046 115.352 704.034 109.351 702.01 104.45C700.021 99.5497 697.145 95.8388 693.38 93.3175C689.652 90.7962 685.159 89.5355 679.904 89.5355C674.684 89.5355 670.191 90.7962 666.427 93.3175C662.663 95.8388 659.769 99.5497 657.745 104.45C655.756 109.351 654.762 115.352 654.762 122.455C654.762 129.557 655.756 135.558 657.745 140.459C659.769 145.359 662.663 149.07 666.427 151.592C670.191 154.113 674.684 155.374 679.904 155.374C685.159 155.374 689.652 154.113 693.38 151.592C697.145 149.07 700.021 145.359 702.01 140.459C704.034 135.558 705.046 129.557 705.046 122.455ZM787.716 177H747.393V67.9091H787.663C798.778 67.9091 808.348 70.093 816.374 74.4609C824.435 78.7933 830.65 85.0433 835.017 93.2109C839.385 101.343 841.569 111.073 841.569 122.401C841.569 133.765 839.385 143.531 835.017 151.698C830.685 159.866 824.488 166.134 816.427 170.501C808.366 174.834 798.796 177 787.716 177ZM773.76 154.521H786.704C792.812 154.521 797.979 153.491 802.205 151.432C806.466 149.337 809.68 145.945 811.846 141.258C814.048 136.535 815.149 130.249 815.149 122.401C815.149 114.553 814.048 108.303 811.846 103.651C809.645 98.9638 806.395 95.5902 802.098 93.5305C797.837 91.4354 792.581 90.3878 786.331 90.3878H773.76V154.521ZM856.963 177V67.9091H933.029V89.3224H883.331V111.695H929.14V133.161H883.331V155.587H933.029V177H856.963Z" fill="black"/>
<path d="M253.847 103.545L249.02 104.847L250.018 108.545H253.847V103.545ZM251.184 97.6321L247.037 100.425L247.05 100.445L247.064 100.465L251.184 97.6321ZM241.01 90.4943L239.616 95.296L239.652 95.3065L239.688 95.3163L241.01 90.4943ZM220.023 93.3707L217.267 89.1987L217.258 89.2046L217.249 89.2105L220.023 93.3707ZM211.127 104.557L215.719 106.535L215.725 106.522L211.127 104.557ZM211.021 140.192L215.647 138.295L215.647 138.295L211.021 140.192ZM219.81 151.485L222.61 147.343L222.61 147.343L219.81 151.485ZM246.017 153.03L248.137 157.558L248.147 157.553L248.157 157.549L246.017 153.03ZM253.688 146.265L249.395 143.7L249.395 143.7L253.688 146.265ZM256.298 135.984L256.891 131.02L251.298 130.351V135.984H256.298ZM261.198 136.57V141.57L261.792 131.606L261.198 136.57ZM234.671 136.57H229.671V141.57H234.671V136.57ZM234.671 117.341V112.341H229.671V117.341H234.671ZM281.706 117.341H286.706V112.341H281.706V117.341ZM275.474 156.865L271.18 154.302L271.176 154.31L271.171 154.318L275.474 156.865ZM258.428 172.898L256.14 168.453L256.131 168.457L258.428 172.898ZM206.12 171.727L208.603 167.387L206.12 171.727ZM187.69 152.444L183.263 154.77L183.268 154.777L187.69 152.444ZM185.08 98.804L189.746 100.599L189.749 100.591L185.08 98.804ZM196.212 81.1193L192.664 77.5969L192.657 77.6034L192.651 77.6101L196.212 81.1193ZM212.832 70.1463L211.002 65.4932L210.993 65.4967L212.832 70.1463ZM250.864 69.1342L249.283 73.8777L249.292 73.8807L250.864 69.1342ZM265.353 76.8047L262.258 80.7317L262.266 80.738L262.274 80.7443L265.353 76.8047ZM275.634 88.5767L271.305 91.0792L271.305 91.0792L275.634 88.5767ZM280.534 103.545V108.545H286.157L285.5 102.961L280.534 103.545ZM253.847 103.545L258.675 102.242C257.941 99.5237 256.833 97.0228 255.304 94.7995L251.184 97.6321L247.064 100.465C247.879 101.65 248.546 103.091 249.02 104.847L253.847 103.545ZM251.184 97.6321L255.331 94.8391C253.823 92.5997 251.96 90.6892 249.759 89.1308L246.869 93.2109L243.979 97.2911C245.188 98.1474 246.201 99.1843 247.037 100.425L251.184 97.6321ZM246.869 93.2109L249.759 89.1308C247.537 87.5567 245.044 86.4157 242.332 85.6723L241.01 90.4943L239.688 95.3163C241.38 95.7803 242.792 96.4504 243.979 97.2911L246.869 93.2109ZM241.01 90.4943L242.404 85.6926C239.689 84.9043 236.798 84.5355 233.766 84.5355V89.5355V94.5355C235.989 94.5355 237.928 94.8059 239.616 95.296L241.01 90.4943ZM233.766 89.5355V84.5355C227.636 84.5355 222.066 86.0286 217.267 89.1987L220.023 93.3707L222.779 97.5427C225.721 95.5992 229.312 94.5355 233.766 94.5355V89.5355ZM220.023 93.3707L217.249 89.2105C212.485 92.3864 208.946 96.9404 206.53 102.591L211.127 104.557L215.725 106.522C217.499 102.372 219.89 99.4687 222.796 97.531L220.023 93.3707ZM211.127 104.557L206.535 102.579C204.101 108.232 202.984 114.858 202.984 122.295H207.984H212.984C212.984 115.811 213.963 110.612 215.719 106.535L211.127 104.557ZM207.984 122.295H202.984C202.984 129.749 204.06 136.396 206.394 142.09L211.021 140.192L215.647 138.295C213.933 134.117 212.984 128.832 212.984 122.295H207.984ZM211.021 140.192L206.394 142.09C208.734 147.795 212.238 152.403 217.01 155.628L219.81 151.485L222.61 147.343C219.71 145.383 217.355 142.462 215.647 138.295L211.021 140.192ZM219.81 151.485L217.01 155.628C221.813 158.874 227.484 160.374 233.766 160.374V155.374V150.374C229.11 150.374 225.477 149.281 222.61 147.343L219.81 151.485ZM233.766 155.374V160.374C239.11 160.374 243.963 159.512 248.137 157.558L246.017 153.03L243.897 148.501C241.395 149.673 238.08 150.374 233.766 150.374V155.374ZM246.017 153.03L248.157 157.549C252.332 155.571 255.681 152.676 257.98 148.83L253.688 146.265L249.395 143.7C248.214 145.677 246.449 147.293 243.877 148.511L246.017 153.03ZM253.688 146.265L257.98 148.83C260.254 145.024 261.298 140.681 261.298 135.984H256.298H251.298C251.298 139.171 250.602 141.682 249.395 143.7L253.688 146.265ZM256.298 135.984L255.704 140.949L260.605 141.535L261.198 136.57L261.792 131.606L256.891 131.02L256.298 135.984ZM261.198 136.57V131.57H234.671V136.57V141.57H261.198V136.57ZM234.671 136.57H239.671V117.341H234.671H229.671V136.57H234.671ZM234.671 117.341V122.341H281.706V117.341V112.341H234.671V117.341ZM281.706 117.341H276.706V131.776H281.706H286.706V117.341H281.706ZM281.706 131.776H276.706C276.706 140.825 274.786 148.262 271.18 154.302L275.474 156.865L279.767 159.428C284.471 151.548 286.706 142.259 286.706 131.776H281.706ZM275.474 156.865L271.171 154.318C267.535 160.462 262.554 165.151 256.14 168.453L258.428 172.898L260.717 177.344C268.791 173.188 275.174 167.188 279.777 159.412L275.474 156.865ZM258.428 172.898L256.131 168.457C249.735 171.766 242.253 173.491 233.553 173.491V178.491V183.491C243.602 183.491 252.704 181.489 260.725 177.34L258.428 172.898ZM233.553 178.491V173.491C223.89 173.491 215.626 171.404 208.603 167.387L206.12 171.727L203.637 176.067C212.381 181.069 222.405 183.491 233.553 183.491V178.491ZM206.12 171.727L208.603 167.387C201.576 163.367 196.09 157.651 192.112 150.111L187.69 152.444L183.268 154.777C188.096 163.927 194.897 171.066 203.637 176.067L206.12 171.727ZM187.69 152.444L192.116 150.118C188.162 142.593 186.085 133.482 186.085 122.614H181.085H176.085C176.085 134.758 178.41 145.533 183.263 154.77L187.69 152.444ZM181.085 122.614H186.085C186.085 114.156 187.343 106.846 189.746 100.599L185.08 98.804L180.413 97.0091C177.489 104.611 176.085 113.175 176.085 122.614H181.085ZM185.08 98.804L189.749 100.591C192.191 94.2107 195.546 88.9198 199.774 84.6286L196.212 81.1193L192.651 77.6101C187.362 82.9779 183.295 89.4768 180.41 97.0171L185.08 98.804ZM196.212 81.1193L199.761 84.6418C204.072 80.2985 209.031 77.0262 214.671 74.7959L212.832 70.1463L210.993 65.4967C204.061 68.238 197.941 72.2811 192.664 77.5969L196.212 81.1193ZM212.832 70.1463L214.662 74.7994C220.359 72.5589 226.534 71.4176 233.233 71.4176V66.4176V61.4176C225.372 61.4176 217.946 62.7621 211.002 65.4932L212.832 70.1463ZM233.233 66.4176V71.4176C239.072 71.4176 244.41 72.2532 249.283 73.8776L250.864 69.1342L252.446 64.3908C246.452 62.3931 240.036 61.4176 233.233 61.4176V66.4176ZM250.864 69.1342L249.292 73.8807C254.254 75.5238 258.559 77.8163 262.258 80.7317L265.353 76.8047L268.448 72.8777C263.766 69.1879 258.412 66.3668 252.436 64.3877L250.864 69.1342ZM265.353 76.8047L262.274 80.7443C266.006 83.661 269.005 87.1005 271.305 91.0792L275.634 88.5767L279.962 86.0742C277.007 80.962 273.151 76.5535 268.432 72.8651L265.353 76.8047ZM275.634 88.5767L271.305 91.0792C273.578 95.0105 275.005 99.3429 275.568 104.129L280.534 103.545L285.5 102.961C284.785 96.8801 282.945 91.2338 279.962 86.0742L275.634 88.5767ZM280.534 103.545V98.5447H253.847V103.545V108.545H280.534V103.545ZM297.247 177H292.247V182H297.247V177ZM297.247 67.9091V62.9091H292.247V67.9091H297.247ZM363.458 72.3303L361.232 76.8077L361.248 76.8157L361.264 76.8236L363.458 72.3303ZM377.254 84.9013L372.949 87.4449L372.953 87.4511L372.956 87.4572L377.254 84.9013ZM377.147 123.52L381.381 126.18L381.385 126.174L381.389 126.167L377.147 123.52ZM363.085 135.558L365.138 140.117L365.149 140.112L365.16 140.107L363.085 135.558ZM313.014 139.66H308.014V144.66H313.014V139.66ZM313.014 118.886V113.886H308.014V118.886H313.014ZM346.572 117.341L348.375 122.004L348.391 121.998L348.408 121.992L346.572 117.341ZM352.698 112.547L356.89 115.272L356.9 115.256L356.91 115.24L352.698 112.547ZM352.698 95.8743L348.446 98.5061L348.456 98.5213L348.465 98.5365L352.698 95.8743ZM346.572 90.8672L344.632 95.4754L344.658 95.4863L344.684 95.4969L346.572 90.8672ZM323.614 89.1626V84.1626H318.614V89.1626H323.614ZM323.614 177V182H328.614V177H323.614ZM358.664 127.142L363.054 124.75L361.633 122.142H358.664V127.142ZM385.83 177V182H394.248L390.22 174.608L385.83 177ZM357.066 177L352.655 179.356L354.068 182H357.066V177ZM330.432 127.142V122.142H322.092L326.022 129.498L330.432 127.142ZM297.247 177H302.247V67.9091H297.247H292.247V177H297.247ZM297.247 67.9091V72.9091H342.311V67.9091V62.9091H297.247V67.9091ZM342.311 67.9091V72.9091C349.883 72.9091 356.136 74.2748 361.232 76.8077L363.458 72.3303L365.683 67.8528C358.919 64.4908 351.074 62.9091 342.311 62.9091V67.9091ZM363.458 72.3303L361.264 76.8236C366.393 79.3267 370.239 82.8579 372.949 87.4449L377.254 84.9013L381.558 82.3576C377.806 76.0071 372.454 71.1577 365.651 67.8369L363.458 72.3303ZM377.254 84.9013L372.956 87.4572C375.651 91.9881 377.101 97.5164 377.101 104.237H382.101H387.101C387.101 96.0432 385.319 88.6809 381.551 82.3453L377.254 84.9013ZM382.101 104.237H377.101C377.101 111.065 375.616 116.53 372.906 120.872L377.147 123.52L381.389 126.167C385.283 119.928 387.101 112.537 387.101 104.237H382.101ZM377.147 123.52L372.914 120.86C370.17 125.226 366.264 128.613 361.01 131.009L363.085 135.558L365.16 140.107C372.051 136.964 377.519 132.326 381.381 126.18L377.147 123.52ZM363.085 135.558L361.032 130.999C355.744 133.38 349.284 134.66 341.512 134.66V139.66V144.66C350.359 144.66 358.281 143.205 365.138 140.117L363.085 135.558ZM341.512 139.66V134.66H313.014V139.66V144.66H341.512V139.66ZM313.014 139.66H318.014V118.886H313.014H308.014V139.66H313.014ZM313.014 118.886V123.886H336.611V118.886V113.886H313.014V118.886ZM336.611 118.886V123.886C340.98 123.886 344.959 123.325 348.375 122.004L346.572 117.341L344.769 112.677C342.858 113.416 340.196 113.886 336.611 113.886V118.886ZM346.572 117.341L348.408 121.992C351.931 120.601 354.861 118.394 356.89 115.272L352.698 112.547L348.505 109.822C347.765 110.961 346.611 111.95 344.736 112.69L346.572 117.341ZM352.698 112.547L356.91 115.24C358.947 112.055 359.775 108.273 359.775 104.237H354.775H349.775C349.775 106.949 349.218 108.707 348.485 109.854L352.698 112.547ZM354.775 104.237H359.775C359.775 100.197 358.945 96.4158 356.93 93.212L352.698 95.8743L348.465 98.5365C349.22 99.7362 349.775 101.53 349.775 104.237H354.775ZM352.698 95.8743L356.949 93.2425C354.948 90.0096 352.028 87.6926 348.46 86.2375L346.572 90.8672L344.684 95.4969C346.514 96.2435 347.678 97.2645 348.446 98.5061L352.698 95.8743ZM346.572 90.8672L348.512 86.259C345.026 84.7913 341.002 84.1626 336.611 84.1626V89.1626V94.1626C340.104 94.1626 342.72 94.6704 344.632 95.4754L346.572 90.8672ZM336.611 89.1626V84.1626H323.614V89.1626V94.1626H336.611V89.1626ZM323.614 89.1626H318.614V177H323.614H328.614V89.1626H323.614ZM323.614 177V172H297.247V177V182H323.614V177ZM358.664 127.142L354.273 129.534L381.439 179.392L385.83 177L390.22 174.608L363.054 124.75L358.664 127.142ZM385.83 177V172H357.066V177V182H385.83V177ZM357.066 177L361.476 174.644L334.842 124.786L330.432 127.142L326.022 129.498L352.655 179.356L357.066 177ZM330.432 127.142V132.142H358.664V127.142V122.142H330.432V127.142ZM492.604 152.977L488.228 150.556L488.228 150.556L492.604 152.977ZM473.854 171.993L471.445 167.611L471.437 167.616L473.854 171.993ZM420.959 171.94L423.391 167.571L423.391 167.571L420.959 171.94ZM402.263 152.923L397.88 155.329L397.886 155.34L397.892 155.352L402.263 152.923ZM402.263 91.9325L397.887 89.5122L397.884 89.5194L397.88 89.5265L402.263 91.9325ZM420.959 72.9162L423.376 77.2935L423.376 77.2935L420.959 72.9162ZM473.854 72.9162L471.437 77.2935L471.445 77.2981L473.854 72.9162ZM492.604 91.9325L488.228 94.3528L488.228 94.3528L492.604 91.9325ZM469.539 104.45L464.906 106.33L464.912 106.345L464.918 106.359L469.539 104.45ZM460.91 93.3175L458.109 97.4594L458.118 97.4656L458.127 97.4717L460.91 93.3175ZM433.957 93.3175L436.739 97.4717L436.739 97.4717L433.957 93.3175ZM425.274 104.45L420.653 102.541L420.647 102.556L420.641 102.57L425.274 104.45ZM425.274 140.459L420.641 142.339L420.647 142.353L420.653 142.368L425.274 140.459ZM433.957 151.592L436.739 147.437L436.739 147.437L433.957 151.592ZM460.91 151.592L458.127 147.437L458.118 147.444L458.109 147.45L460.91 151.592ZM469.539 140.459L464.918 138.55L464.912 138.564L464.906 138.579L469.539 140.459ZM499.528 122.455H494.528C494.528 133.826 492.342 143.12 488.228 150.556L492.604 152.977L496.979 155.397C502.098 146.143 504.528 135.089 504.528 122.455H499.528ZM492.604 152.977L488.228 150.556C484.04 158.127 478.451 163.761 471.445 167.611L473.854 171.993L476.262 176.375C485.024 171.56 491.934 164.517 496.979 155.397L492.604 152.977ZM473.854 171.993L471.437 167.616C464.394 171.504 456.431 173.491 447.433 173.491V178.491V183.491C457.966 183.491 467.617 181.147 476.27 176.37L473.854 171.993ZM447.433 178.491V173.491C438.403 173.491 430.429 171.488 423.391 167.571L420.959 171.94L418.528 176.309C427.186 181.127 436.861 183.491 447.433 183.491V178.491ZM420.959 171.94L423.391 167.571C416.406 163.683 410.825 158.039 406.633 150.495L402.263 152.923L397.892 155.352C402.933 164.427 409.817 171.46 418.528 176.309L420.959 171.94ZM402.263 152.923L406.646 150.517C402.561 143.076 400.391 133.793 400.391 122.455H395.391H390.391C390.391 135.051 392.803 146.081 397.88 155.329L402.263 152.923ZM395.391 122.455H400.391C400.391 111.078 402.562 101.778 406.646 94.3385L402.263 91.9325L397.88 89.5265C392.802 98.7771 390.391 109.826 390.391 122.455H395.391ZM402.263 91.9325L406.638 94.3528C410.829 86.7764 416.405 81.1415 423.376 77.2935L420.959 72.9162L418.543 68.5389C409.817 73.3556 402.929 80.3983 397.887 89.5122L402.263 91.9325ZM420.959 72.9162L423.376 77.2935C430.416 73.4069 438.396 71.4176 447.433 71.4176V66.4176V61.4176C436.868 61.4176 427.199 63.7607 418.543 68.5389L420.959 72.9162ZM447.433 66.4176V71.4176C456.431 71.4176 464.394 73.4055 471.437 77.2935L473.854 72.9162L476.27 68.5389C467.617 63.7621 457.966 61.4176 447.433 61.4176V66.4176ZM473.854 72.9162L471.445 77.2981C478.451 81.1477 484.04 86.7822 488.228 94.3528L492.604 91.9325L496.979 89.5122C491.934 80.3926 485.024 73.3494 476.262 68.5343L473.854 72.9162ZM492.604 91.9325L488.228 94.3528C492.342 101.789 494.528 111.083 494.528 122.455H499.528H504.528C504.528 109.82 502.098 98.766 496.979 89.5122L492.604 91.9325ZM472.575 122.455H477.575C477.575 114.907 476.504 108.215 474.16 102.541L469.539 104.45L464.918 106.359C466.622 110.487 467.575 115.797 467.575 122.455H472.575ZM469.539 104.45L474.172 102.57C471.872 96.9025 468.418 92.329 463.692 89.1633L460.91 93.3175L458.127 97.4717C460.929 99.3486 463.228 102.197 464.906 106.33L469.539 104.45ZM460.91 93.3175L463.71 89.1755C459.023 86.0061 453.516 84.5355 447.433 84.5355V89.5355V94.5355C451.862 94.5355 455.339 95.5863 458.109 97.4594L460.91 93.3175ZM447.433 89.5355V84.5355C441.377 84.5355 435.881 86.0102 431.174 89.1633L433.957 93.3175L436.739 97.4717C439.56 95.5822 443.049 94.5355 447.433 94.5355V89.5355ZM433.957 93.3175L431.174 89.1633C426.456 92.3234 422.989 96.8863 420.653 102.541L425.274 104.45L429.895 106.359C431.608 102.213 433.929 99.3542 436.739 97.4717L433.957 93.3175ZM425.274 104.45L420.641 102.57C418.342 108.235 417.291 114.916 417.291 122.455H422.291H427.291C427.291 115.789 428.228 110.467 429.907 106.33L425.274 104.45ZM422.291 122.455H417.291C417.291 129.993 418.342 136.675 420.641 142.339L425.274 140.459L429.907 138.579C428.228 134.442 427.291 129.12 427.291 122.455H422.291ZM425.274 140.459L420.653 142.368C422.989 148.023 426.456 152.586 431.174 155.746L433.957 151.592L436.739 147.437C433.929 145.555 431.608 142.696 429.895 138.55L425.274 140.459ZM433.957 151.592L431.174 155.746C435.881 158.899 441.377 160.374 447.433 160.374V155.374V150.374C443.049 150.374 439.56 149.327 436.739 147.437L433.957 151.592ZM447.433 155.374V160.374C453.516 160.374 459.023 158.903 463.71 155.734L460.91 151.592L458.109 147.45C455.339 149.323 451.862 150.374 447.433 150.374V155.374ZM460.91 151.592L463.692 155.746C468.418 152.58 471.872 148.007 474.172 142.339L469.539 140.459L464.906 138.579C463.228 142.712 460.929 145.561 458.127 147.437L460.91 151.592ZM469.539 140.459L474.16 142.368C476.504 136.694 477.575 130.002 477.575 122.455H472.575H467.575C467.575 129.112 466.622 134.422 464.918 138.55L469.539 140.459ZM613.946 107.433V112.433H619.459L618.922 106.946L613.946 107.433ZM587.312 107.433L582.354 108.077L582.92 112.433H587.312V107.433ZM585.128 100.029L580.656 102.265L580.656 102.265L585.128 100.029ZM580.76 94.3828L584.027 90.597L584.027 90.597L580.76 94.3828ZM574.315 90.8139L572.673 95.5364L572.713 95.5506L572.754 95.5641L574.315 90.8139ZM552.476 93.424L549.676 89.2815L549.667 89.2876L549.658 89.2937L552.476 93.424ZM543.687 104.663L539.077 102.726L539.071 102.74L539.065 102.755L543.687 104.663ZM543.74 140.672L539.13 142.609L539.139 142.629L539.148 142.65L543.74 140.672ZM552.529 151.698L549.774 155.87L549.796 155.885L549.819 155.9L552.529 151.698ZM573.942 154.255L572.467 149.478L572.457 149.481L572.447 149.484L573.942 154.255ZM580.281 151.006L583.367 154.94L583.377 154.932L580.281 151.006ZM584.809 145.732L580.477 143.236L580.47 143.248L580.463 143.26L584.809 145.732ZM587.312 138.648L587.342 133.648L583.119 133.622L582.388 137.783L587.312 138.648ZM613.946 138.808L618.923 139.283L619.443 133.84L613.976 133.808L613.946 138.808ZM609.738 153.083L605.266 150.847L605.259 150.861L605.252 150.874L609.738 153.083ZM600.203 165.92L603.642 169.55L603.65 169.542L603.658 169.534L600.203 165.92ZM585.395 175.082L583.577 170.424L583.567 170.428L585.395 175.082ZM538.946 171.993L536.497 176.352L536.509 176.359L536.521 176.366L538.946 171.993ZM520.515 152.923L524.914 150.546L520.515 152.923ZM520.622 91.9325L516.239 89.5265L516.239 89.5265L520.622 91.9325ZM583.797 69.1875L582.234 73.9369L582.247 73.9414L582.261 73.9458L583.797 69.1875ZM598.605 77.1776L595.423 81.0344L595.433 81.0423L595.442 81.0502L598.605 77.1776ZM613.946 107.433V102.433H587.312V107.433V112.433H613.946V107.433ZM587.312 107.433L592.271 106.789C591.852 103.567 590.979 100.551 589.601 97.793L585.128 100.029L580.656 102.265C581.479 103.911 582.062 105.831 582.354 108.077L587.312 107.433ZM585.128 100.029L589.601 97.793C588.213 95.0177 586.353 92.604 584.027 90.597L580.76 94.3828L577.494 98.1686C578.79 99.2866 579.842 100.637 580.656 102.265L585.128 100.029ZM580.76 94.3828L584.027 90.597C581.671 88.5649 578.929 87.0669 575.876 86.0638L574.315 90.8139L572.754 95.5641C574.673 96.1944 576.228 97.0758 577.494 98.1686L580.76 94.3828ZM574.315 90.8139L575.958 86.0914C572.907 85.0302 569.625 84.5355 566.165 84.5355V89.5355V94.5355C568.671 94.5355 570.823 94.8931 572.673 95.5364L574.315 90.8139ZM566.165 89.5355V84.5355C560.023 84.5355 554.452 86.0532 549.676 89.2815L552.476 93.424L555.276 97.5665C558.17 95.6101 561.725 94.5355 566.165 94.5355V89.5355ZM552.476 93.424L549.658 89.2937C544.944 92.5096 541.451 97.0786 539.077 102.726L543.687 104.663L548.296 106.601C550.042 102.447 552.408 99.5231 555.294 97.5543L552.476 93.424ZM543.687 104.663L539.065 102.755C536.726 108.418 535.65 115.034 535.65 122.455H540.65H545.65C545.65 115.955 546.599 110.71 548.308 106.572L543.687 104.663ZM540.65 122.455H535.65C535.65 130.138 536.738 136.916 539.13 142.609L543.74 140.672L548.349 138.735C546.623 134.626 545.65 129.26 545.65 122.455H540.65ZM543.74 140.672L539.148 142.65C541.56 148.25 545.063 152.76 549.774 155.87L552.529 151.698L555.284 147.526C552.467 145.665 550.11 142.823 548.332 138.694L543.74 140.672ZM552.529 151.698L549.819 155.9C554.54 158.945 560.004 160.374 566.006 160.374V155.374V150.374C561.637 150.374 558.117 149.352 555.239 147.496L552.529 151.698ZM566.006 155.374V160.374C569.342 160.374 572.501 159.947 575.438 159.026L573.942 154.255L572.447 149.484C570.625 150.055 568.493 150.374 566.006 150.374V155.374ZM573.942 154.255L575.418 159.032C578.359 158.124 581.03 156.773 583.367 154.94L580.281 151.006L577.195 147.071C575.91 148.08 574.355 148.894 572.467 149.478L573.942 154.255ZM580.281 151.006L583.377 154.932C585.734 153.074 587.666 150.821 589.155 148.205L584.809 145.732L580.463 143.26C579.608 144.763 578.521 146.026 577.185 147.079L580.281 151.006ZM584.809 145.732L589.141 148.229C590.668 145.579 591.685 142.656 592.237 139.513L587.312 138.648L582.388 137.783C582.017 139.895 581.364 141.695 580.477 143.236L584.809 145.732ZM587.312 138.648L587.282 143.648L613.916 143.807L613.946 138.808L613.976 133.808L587.342 133.648L587.312 138.648ZM613.946 138.808L608.969 138.332C608.57 142.501 607.356 146.666 605.266 150.847L609.738 153.083L614.21 155.319C616.807 150.125 618.398 144.773 618.923 139.283L613.946 138.808ZM609.738 153.083L605.252 150.874C603.22 155 600.403 158.811 596.748 162.307L600.203 165.92L603.658 169.534C608.099 165.288 611.639 160.541 614.223 155.292L609.738 153.083ZM600.203 165.92L596.764 162.291C593.238 165.631 588.872 168.358 583.577 170.424L585.395 175.082L587.212 179.74C593.565 177.261 599.071 173.88 603.642 169.55L600.203 165.92ZM585.395 175.082L583.567 170.428C578.467 172.431 572.465 173.491 565.473 173.491V178.491V183.491C573.466 183.491 580.746 182.279 587.222 179.736L585.395 175.082ZM565.473 178.491V173.491C556.358 173.491 548.365 171.499 541.371 167.62L538.946 171.993L536.521 176.366C545.151 181.151 554.843 183.491 565.473 183.491V178.491ZM538.946 171.993L541.394 167.633C534.495 163.758 529.004 158.115 524.914 150.546L520.515 152.923L516.117 155.3C521.046 164.422 527.843 171.492 536.497 176.352L538.946 171.993ZM520.515 152.923L524.914 150.546C520.889 143.098 518.751 133.805 518.751 122.455H513.751H508.751C508.751 135.039 511.122 146.058 516.117 155.3L520.515 152.923ZM513.751 122.455H518.751C518.751 111.078 520.921 101.778 525.005 94.3385L520.622 91.9325L516.239 89.5265C511.161 98.7771 508.751 109.826 508.751 122.455H513.751ZM520.622 91.9325L525.005 94.3385C529.163 86.7638 534.705 81.1332 541.637 77.2889L539.212 72.9162L536.787 68.5435C528.095 73.364 521.243 80.4109 516.239 89.5265L520.622 91.9325ZM539.212 72.9162L541.637 77.2889C548.645 73.4025 556.552 71.4176 565.473 71.4176V66.4176V61.4176C555.004 61.4176 545.404 63.7651 536.787 68.5435L539.212 72.9162ZM565.473 66.4176V71.4176C571.609 71.4176 577.183 72.2747 582.234 73.9369L583.797 69.1875L585.36 64.4381C579.189 62.4071 572.547 61.4176 565.473 61.4176V66.4176ZM583.797 69.1875L582.261 73.9458C587.312 75.5761 591.681 77.9469 595.423 81.0344L598.605 77.1776L601.787 73.3207C597.007 69.377 591.503 66.421 585.333 64.4292L583.797 69.1875ZM598.605 77.1776L595.442 81.0502C599.16 84.0861 602.2 87.8302 604.564 92.3373L608.992 90.0149L613.42 87.6926C610.457 82.0434 606.573 77.2292 601.768 73.3049L598.605 77.1776ZM608.992 90.0149L604.564 92.3373C606.888 96.768 608.384 101.935 608.97 107.92L613.946 107.433L618.922 106.946C618.229 99.863 616.423 93.4181 613.42 87.6926L608.992 90.0149ZM725.074 152.977L720.699 150.556L720.699 150.556L725.074 152.977ZM706.324 171.993L703.916 167.611L703.908 167.616L706.324 171.993ZM653.43 171.94L655.862 167.571L655.862 167.571L653.43 171.94ZM634.733 152.923L630.35 155.329L630.356 155.34L630.363 155.352L634.733 152.923ZM634.733 91.9325L630.358 89.5122L630.354 89.5194L630.35 89.5265L634.733 91.9325ZM653.43 72.9162L655.846 77.2935L655.846 77.2935L653.43 72.9162ZM706.324 72.9162L703.908 77.2935L703.916 77.2981L706.324 72.9162ZM725.074 91.9325L720.699 94.3528L720.699 94.3528L725.074 91.9325ZM702.01 104.45L697.377 106.33L697.382 106.345L697.388 106.359L702.01 104.45ZM693.38 93.3175L690.58 97.4594L690.589 97.4656L690.598 97.4717L693.38 93.3175ZM666.427 93.3175L669.21 97.4717L669.21 97.4717L666.427 93.3175ZM657.745 104.45L653.123 102.541L653.117 102.556L653.112 102.57L657.745 104.45ZM657.745 140.459L653.112 142.339L653.117 142.353L653.123 142.368L657.745 140.459ZM666.427 151.592L669.21 147.437L669.21 147.437L666.427 151.592ZM693.38 151.592L690.598 147.437L690.589 147.444L690.58 147.45L693.38 151.592ZM702.01 140.459L697.388 138.55L697.382 138.564L697.377 138.579L702.01 140.459ZM731.999 122.455H726.999C726.999 133.826 724.813 143.12 720.699 150.556L725.074 152.977L729.449 155.397C734.569 146.143 736.999 135.089 736.999 122.455H731.999ZM725.074 152.977L720.699 150.556C716.511 158.127 710.921 163.761 703.916 167.611L706.324 171.993L708.732 176.375C717.494 171.56 724.404 164.517 729.449 155.397L725.074 152.977ZM706.324 171.993L703.908 167.616C696.865 171.504 688.902 173.491 679.904 173.491V178.491V183.491C690.437 183.491 700.088 181.147 708.741 176.37L706.324 171.993ZM679.904 178.491V173.491C670.874 173.491 662.899 171.488 655.862 167.571L653.43 171.94L650.998 176.309C659.657 181.127 669.331 183.491 679.904 183.491V178.491ZM653.43 171.94L655.862 167.571C648.877 163.683 643.295 158.039 639.104 150.495L634.733 152.923L630.363 155.352C635.404 164.427 642.287 171.46 650.998 176.309L653.43 171.94ZM634.733 152.923L639.116 150.517C635.031 143.076 632.862 133.793 632.862 122.455H627.862H622.862C622.862 135.051 625.273 146.081 630.35 155.329L634.733 152.923ZM627.862 122.455H632.862C632.862 111.078 635.032 101.778 639.116 94.3385L634.733 91.9325L630.35 89.5265C625.272 98.7771 622.862 109.826 622.862 122.455H627.862ZM634.733 91.9325L639.108 94.3528C643.3 86.7764 648.876 81.1415 655.846 77.2935L653.43 72.9162L651.014 68.5389C642.288 73.3556 635.4 80.3983 630.358 89.5122L634.733 91.9325ZM653.43 72.9162L655.846 77.2935C662.887 73.4069 670.867 71.4176 679.904 71.4176V66.4176V61.4176C669.338 61.4176 659.669 63.7607 651.014 68.5389L653.43 72.9162ZM679.904 66.4176V71.4176C688.902 71.4176 696.865 73.4055 703.908 77.2935L706.324 72.9162L708.741 68.5389C700.088 63.7621 690.437 61.4176 679.904 61.4176V66.4176ZM706.324 72.9162L703.916 77.2981C710.921 81.1477 716.511 86.7822 720.699 94.3528L725.074 91.9325L729.449 89.5122C724.404 80.3926 717.494 73.3494 708.732 68.5343L706.324 72.9162ZM725.074 91.9325L720.699 94.3528C724.813 101.789 726.999 111.083 726.999 122.455H731.999H736.999C736.999 109.82 734.569 98.766 729.449 89.5122L725.074 91.9325ZM705.046 122.455H710.046C710.046 114.907 708.974 108.215 706.631 102.541L702.01 104.45L697.388 106.359C699.093 110.487 700.046 115.797 700.046 122.455H705.046ZM702.01 104.45L706.643 102.57C704.343 96.9025 700.889 92.329 696.163 89.1633L693.38 93.3175L690.598 97.4717C693.4 99.3486 695.699 102.197 697.377 106.33L702.01 104.45ZM693.38 93.3175L696.181 89.1755C691.494 86.0061 685.986 84.5355 679.904 84.5355V89.5355V94.5355C684.333 94.5355 687.809 95.5863 690.58 97.4594L693.38 93.3175ZM679.904 89.5355V84.5355C673.848 84.5355 668.352 86.0102 663.645 89.1633L666.427 93.3175L669.21 97.4717C672.031 95.5822 675.519 94.5355 679.904 94.5355V89.5355ZM666.427 93.3175L663.645 89.1633C658.927 92.3234 655.459 96.8863 653.123 102.541L657.745 104.45L662.366 106.359C664.078 102.213 666.399 99.3542 669.21 97.4717L666.427 93.3175ZM657.745 104.45L653.112 102.57C650.813 108.235 649.762 114.916 649.762 122.455H654.762H659.762C659.762 115.789 660.699 110.467 662.378 106.33L657.745 104.45ZM654.762 122.455H649.762C649.762 129.993 650.813 136.675 653.112 142.339L657.745 140.459L662.378 138.579C660.699 134.442 659.762 129.12 659.762 122.455H654.762ZM657.745 140.459L653.123 142.368C655.459 148.023 658.927 152.586 663.645 155.746L666.427 151.592L669.21 147.437C666.399 145.555 664.078 142.696 662.366 138.55L657.745 140.459ZM666.427 151.592L663.645 155.746C668.352 158.899 673.848 160.374 679.904 160.374V155.374V150.374C675.519 150.374 672.031 149.327 669.21 147.437L666.427 151.592ZM679.904 155.374V160.374C685.986 160.374 691.494 158.903 696.181 155.734L693.38 151.592L690.58 147.45C687.809 149.323 684.333 150.374 679.904 150.374V155.374ZM693.38 151.592L696.163 155.746C700.889 152.58 704.343 148.007 706.643 142.339L702.01 140.459L697.377 138.579C695.699 142.712 693.4 145.561 690.598 147.437L693.38 151.592ZM702.01 140.459L706.631 142.368C708.974 136.694 710.046 130.002 710.046 122.455H705.046H700.046C700.046 129.112 699.093 134.422 697.388 138.55L702.01 140.459ZM747.393 177H742.393V182H747.393V177ZM747.393 67.9091V62.9091H742.393V67.9091H747.393ZM816.374 74.4609L813.984 78.8526L813.995 78.8589L814.007 78.8652L816.374 74.4609ZM835.017 93.2109L830.608 95.5689L830.613 95.5768L835.017 93.2109ZM835.017 151.698L830.608 149.34L830.604 149.348L830.6 149.355L835.017 151.698ZM816.427 170.501L818.794 174.906L818.802 174.902L818.809 174.898L816.427 170.501ZM773.76 154.521H768.76V159.521H773.76V154.521ZM802.205 151.432L804.396 155.926L804.403 155.923L804.411 155.919L802.205 151.432ZM811.846 141.258L807.314 139.145L807.311 139.153L807.307 139.16L811.846 141.258ZM811.846 103.651L807.321 105.777L807.324 105.784L807.327 105.79L811.846 103.651ZM802.098 93.5305L799.892 98.0175L799.915 98.0285L799.937 98.0393L802.098 93.5305ZM773.76 90.3878V85.3878H768.76V90.3878H773.76ZM787.716 177V172H747.393V177V182H787.716V177ZM747.393 177H752.393V67.9091H747.393H742.393V177H747.393ZM747.393 67.9091V72.9091H787.663V67.9091V62.9091H747.393V67.9091ZM787.663 67.9091V72.9091C798.122 72.9091 806.834 74.9616 813.984 78.8526L816.374 74.4609L818.764 70.0692C809.862 65.2244 799.434 62.9091 787.663 62.9091V67.9091ZM816.374 74.4609L814.007 78.8652C821.19 82.7254 826.699 88.2584 830.608 95.5689L835.017 93.2109L839.427 90.853C834.6 81.8283 827.68 74.8612 818.741 70.0567L816.374 74.4609ZM835.017 93.2109L830.613 95.5768C834.511 102.834 836.569 111.713 836.569 122.401H841.569H846.569C846.569 110.433 844.26 99.852 839.422 90.845L835.017 93.2109ZM841.569 122.401H836.569C836.569 133.127 834.51 142.045 830.608 149.34L835.017 151.698L839.427 154.056C844.261 145.016 846.569 134.403 846.569 122.401H841.569ZM835.017 151.698L830.6 149.355C826.725 156.661 821.233 162.211 814.045 166.105L816.427 170.501L818.809 174.898C827.744 170.056 834.645 163.071 839.434 154.041L835.017 151.698ZM816.427 170.501L814.06 166.097C806.865 169.964 798.142 172 787.716 172V177V182C799.449 182 809.867 179.703 818.794 174.906L816.427 170.501ZM773.76 154.521V159.521H786.704V154.521V149.521H773.76V154.521ZM786.704 154.521V159.521C793.353 159.521 799.315 158.403 804.396 155.926L802.205 151.432L800.014 146.937C796.643 148.58 792.272 149.521 786.704 149.521V154.521ZM802.205 151.432L804.411 155.919C809.793 153.273 813.783 148.986 816.385 143.355L811.846 141.258L807.307 139.16C805.577 142.905 803.14 145.401 799.999 146.945L802.205 151.432ZM811.846 141.258L816.378 143.37C819.004 137.737 820.149 130.643 820.149 122.401H815.149H810.149C810.149 129.855 809.092 135.333 807.314 139.145L811.846 141.258ZM815.149 122.401H820.149C820.149 114.165 819.006 107.091 816.366 101.512L811.846 103.651L807.327 105.79C809.09 109.515 810.149 114.941 810.149 122.401H815.149ZM811.846 103.651L816.372 101.526C813.726 95.892 809.688 91.624 804.26 89.0218L802.098 93.5305L799.937 98.0393C803.102 99.5564 805.563 102.036 807.321 105.777L811.846 103.651ZM802.098 93.5305L804.304 89.0435C799.175 86.5216 793.114 85.3878 786.331 85.3878V90.3878V95.3878C792.048 95.3878 796.499 96.3491 799.892 98.0175L802.098 93.5305ZM786.331 90.3878V85.3878H773.76V90.3878V95.3878H786.331V90.3878ZM773.76 90.3878H768.76V154.521H773.76H778.76V90.3878H773.76ZM856.963 177H851.963V182H856.963V177ZM856.963 67.9091V62.9091H851.963V67.9091H856.963ZM933.029 67.9091H938.029V62.9091H933.029V67.9091ZM933.029 89.3224V94.3224H938.029V89.3224H933.029ZM883.331 89.3224V84.3224H878.331V89.3224H883.331ZM883.331 111.695H878.331V116.695H883.331V111.695ZM929.14 111.695H934.14V106.695H929.14V111.695ZM929.14 133.161V138.161H934.14V133.161H929.14ZM883.331 133.161V128.161H878.331V133.161H883.331ZM883.331 155.587H878.331V160.587H883.331V155.587ZM933.029 155.587H938.029V150.587H933.029V155.587ZM933.029 177V182H938.029V177H933.029ZM856.963 177H861.963V67.9091H856.963H851.963V177H856.963ZM856.963 67.9091V72.9091H933.029V67.9091V62.9091H856.963V67.9091ZM933.029 67.9091H928.029V89.3224H933.029H938.029V67.9091H933.029ZM933.029 89.3224V84.3224H883.331V89.3224V94.3224H933.029V89.3224ZM883.331 89.3224H878.331V111.695H883.331H888.331V89.3224H883.331ZM883.331 111.695V116.695H929.14V111.695V106.695H883.331V111.695ZM929.14 111.695H924.14V133.161H929.14H934.14V111.695H929.14ZM929.14 133.161V128.161H883.331V133.161V138.161H929.14V133.161ZM883.331 133.161H878.331V155.587H883.331H888.331V133.161H883.331ZM883.331 155.587V160.587H933.029V155.587V150.587H883.331V155.587ZM933.029 155.587H928.029V177H933.029H938.029V155.587H933.029ZM933.029 177V172H856.963V177V182H933.029V177Z" fill="white" mask="url(#path-5-outside-1_8_25)"/>
</svg>
