<svg width="1010" height="212" viewBox="0 0 1010 212" fill="none" xmlns="http://www.w3.org/2000/svg">
<path d="M75.0958 141C78.2153 153.999 91.1805 155.992 97.5169 156.5V108.107V87.36V67.5328L95.046 66.0095C92.1102 66.8558 87.3448 73.9307 85.7851 81.2425L96.0208 72.6105V81.2425C92.7601 81.9195 86.2725 87.3357 84.8103 95.9677L96.0208 88.3735V108.305C95.3308 108.489 94.6747 108.8 94.0712 109.221C92.5 110.5 92 111 91 114.5C80.4495 116.531 86.3492 125.673 77.5 120C58.4908 107.814 79.97 59.3619 97.5169 48.1911V2.99992C77.0116 -2.5855 70.6752 -3.60103 58.0024 29.4037C33.4692 37.8665 1.20364 53.6444 0.033844 62.9872C-1.13596 72.3301 28.3039 83.2979 43.9012 87.36C43.4138 90.9143 39.9044 105.335 45.3635 142.707C47.7994 159.382 49.9001 166.383 56 174C63.5705 183.453 75.0958 182 75.0958 182V141Z" fill="black"/>
<path d="M119.421 141C116.302 153.999 103.336 155.992 97 156.5V108.107V87.36V67.5328L99.4709 66.0095C102.407 66.8558 107.172 73.9307 108.732 81.2425L98.4961 72.6105V81.2425C101.757 81.9195 108.244 87.3357 109.707 95.9677L98.4961 88.3735V108.305C99.1862 108.489 99.8423 108.8 100.446 109.221C102.017 110.5 102.517 111 103.517 114.5C114.067 116.531 108.168 125.673 117.017 120C136.026 107.814 114.547 59.3619 97 48.1911V2.99992C117.505 -2.5855 123.842 -3.60103 136.515 29.4037C161.048 37.8665 193.313 53.6444 194.483 62.9872C195.653 72.3301 166.213 83.2979 150.616 87.36C151.103 90.9143 154.613 105.335 149.153 142.707C146.718 159.382 144.617 166.383 138.517 174C130.946 183.453 119.421 182 119.421 182V141Z" fill="black"/>
<path d="M54.0633 47.7144C50.5539 54.2138 44.1247 78.3602 42.5 87.5C10.3305 77.8525 -2.23682 72.4946 3.13258 62.7058C5.08224 59.1515 16.943 51.2912 36.2768 46.4573C47.9865 43.5297 82.3334 38.0669 96.4685 37.5591V39.0824C75.5242 40.098 55.0382 44.1601 54.0633 47.7144Z" fill="black"/>
<path d="M138.888 47.7144C142.398 54.2138 149.375 77.8602 151 87C183.169 77.3525 195.188 72.4946 189.819 62.7058C187.869 59.1515 176.009 51.2912 156.675 46.4573C144.965 43.5297 110.618 38.0669 96.4831 37.5591L96.4831 39.0824C116.955 40.098 137.913 44.1601 138.888 47.7144Z" fill="black"/>
<path d="M253.847 103.545C253.244 101.308 252.356 99.3366 251.184 97.6321C250.012 95.892 248.574 94.4183 246.869 93.2109C245.165 92.0036 243.212 91.098 241.01 90.4943C238.808 89.8551 236.393 89.5355 233.766 89.5355C228.474 89.5355 223.893 90.8139 220.023 93.3707C216.188 95.9276 213.222 99.6562 211.127 104.557C209.032 109.422 207.984 115.335 207.984 122.295C207.984 129.29 208.996 135.256 211.021 140.192C213.045 145.129 215.974 148.893 219.81 151.485C223.645 154.077 228.297 155.374 233.766 155.374C238.595 155.374 242.679 154.592 246.017 153.03C249.391 151.432 251.947 149.177 253.688 146.265C255.428 143.353 256.298 139.926 256.298 135.984L261.198 136.57H234.671V117.341H281.706V131.776C281.706 141.542 279.629 149.905 275.474 156.865C271.354 163.825 265.673 169.17 258.428 172.898C251.219 176.627 242.928 178.491 233.553 178.491C223.148 178.491 214.004 176.237 206.12 171.727C198.237 167.217 192.093 160.789 187.69 152.444C183.286 144.063 181.085 134.12 181.085 122.614C181.085 113.665 182.416 105.729 185.08 98.804C187.743 91.8437 191.454 85.9489 196.212 81.1193C201.006 76.2898 206.546 72.6321 212.832 70.1463C219.153 67.6605 225.953 66.4176 233.233 66.4176C239.554 66.4176 245.431 67.3232 250.864 69.1342C256.333 70.9453 261.163 73.5021 265.353 76.8047C269.579 80.1072 273.006 84.0312 275.634 88.5767C278.261 93.1222 279.895 98.1115 280.534 103.545H253.847ZM297.247 177V67.9091H342.311C350.478 67.9091 357.527 69.3828 363.458 72.3303C369.423 75.2422 374.022 79.4325 377.254 84.9013C380.485 90.3345 382.101 96.7798 382.101 104.237C382.101 111.801 380.45 118.229 377.147 123.52C373.845 128.776 369.157 132.788 363.085 135.558C357.012 138.293 349.821 139.66 341.512 139.66H313.014V118.886H336.611C340.588 118.886 343.909 118.371 346.572 117.341C349.271 116.276 351.313 114.678 352.698 112.547C354.083 110.381 354.775 107.611 354.775 104.237C354.775 100.864 354.083 98.076 352.698 95.8743C351.313 93.6371 349.271 91.968 346.572 90.8672C343.873 89.7308 340.553 89.1626 336.611 89.1626H323.614V177H297.247ZM358.664 127.142L385.83 177H357.066L330.432 127.142H358.664ZM499.528 122.455C499.528 134.457 497.22 144.631 492.604 152.977C487.987 161.322 481.737 167.661 473.854 171.993C466.006 176.325 457.199 178.491 447.433 178.491C437.632 178.491 428.807 176.308 420.959 171.94C413.111 167.572 406.879 161.233 402.263 152.923C397.682 144.578 395.391 134.422 395.391 122.455C395.391 110.452 397.682 100.278 402.263 91.9325C406.879 83.5874 413.111 77.2486 420.959 72.9162C428.807 68.5838 437.632 66.4176 447.433 66.4176C457.199 66.4176 466.006 68.5838 473.854 72.9162C481.737 77.2486 487.987 83.5874 492.604 91.9325C497.22 100.278 499.528 110.452 499.528 122.455ZM472.575 122.455C472.575 115.352 471.563 109.351 469.539 104.45C467.55 99.5497 464.674 95.8388 460.91 93.3175C457.181 90.7962 452.689 89.5355 447.433 89.5355C442.213 89.5355 437.721 90.7962 433.957 93.3175C430.192 95.8388 427.298 99.5497 425.274 104.45C423.285 109.351 422.291 115.352 422.291 122.455C422.291 129.557 423.285 135.558 425.274 140.459C427.298 145.359 430.192 149.07 433.957 151.592C437.721 154.113 442.213 155.374 447.433 155.374C452.689 155.374 457.181 154.113 460.91 151.592C464.674 149.07 467.55 145.359 469.539 140.459C471.563 135.558 472.575 129.557 472.575 122.455ZM613.946 107.433H587.312C586.957 104.699 586.229 102.231 585.128 100.029C584.028 97.8274 582.572 95.9453 580.76 94.3828C578.949 92.8203 576.801 91.6307 574.315 90.8139C571.865 89.9616 569.148 89.5355 566.165 89.5355C560.874 89.5355 556.311 90.8317 552.476 93.424C548.676 96.0163 545.746 99.7628 543.687 104.663C541.662 109.564 540.65 115.494 540.65 122.455C540.65 129.699 541.68 135.771 543.74 140.672C545.835 145.537 548.765 149.212 552.529 151.698C556.329 154.148 560.821 155.374 566.006 155.374C568.917 155.374 571.563 155.001 573.942 154.255C576.357 153.509 578.47 152.426 580.281 151.006C582.128 149.55 583.637 147.792 584.809 145.732C586.016 143.637 586.851 141.276 587.312 138.648L613.946 138.808C613.484 143.637 612.082 148.396 609.738 153.083C607.43 157.771 604.251 162.05 600.203 165.92C596.155 169.756 591.219 172.81 585.395 175.082C579.606 177.355 572.966 178.491 565.473 178.491C555.601 178.491 546.758 176.325 538.946 171.993C531.169 167.625 525.025 161.268 520.515 152.923C516.006 144.578 513.751 134.422 513.751 122.455C513.751 110.452 516.041 100.278 520.622 91.9325C525.203 83.5874 531.4 77.2486 539.212 72.9162C547.025 68.5838 555.778 66.4176 565.473 66.4176C572.078 66.4176 578.186 67.3409 583.797 69.1875C589.408 70.9986 594.344 73.6619 598.605 77.1776C602.866 80.6577 606.329 84.9368 608.992 90.0149C611.655 95.093 613.307 100.899 613.946 107.433ZM731.999 122.455C731.999 134.457 729.691 144.631 725.074 152.977C720.458 161.322 714.208 167.661 706.324 171.993C698.476 176.325 689.669 178.491 679.904 178.491C670.103 178.491 661.278 176.308 653.43 171.94C645.582 167.572 639.35 161.233 634.733 152.923C630.152 144.578 627.862 134.422 627.862 122.455C627.862 110.452 630.152 100.278 634.733 91.9325C639.35 83.5874 645.582 77.2486 653.43 72.9162C661.278 68.5838 670.103 66.4176 679.904 66.4176C689.669 66.4176 698.476 68.5838 706.324 72.9162C714.208 77.2486 720.458 83.5874 725.074 91.9325C729.691 100.278 731.999 110.452 731.999 122.455ZM705.046 122.455C705.046 115.352 704.034 109.351 702.01 104.45C700.021 99.5497 697.145 95.8388 693.38 93.3175C689.652 90.7962 685.159 89.5355 679.904 89.5355C674.684 89.5355 670.191 90.7962 666.427 93.3175C662.663 95.8388 659.769 99.5497 657.745 104.45C655.756 109.351 654.762 115.352 654.762 122.455C654.762 129.557 655.756 135.558 657.745 140.459C659.769 145.359 662.663 149.07 666.427 151.592C670.191 154.113 674.684 155.374 679.904 155.374C685.159 155.374 689.652 154.113 693.38 151.592C697.145 149.07 700.021 145.359 702.01 140.459C704.034 135.558 705.046 129.557 705.046 122.455ZM787.716 177H747.393V67.9091H787.663C798.778 67.9091 808.348 70.093 816.374 74.4609C824.435 78.7933 830.65 85.0433 835.017 93.2109C839.385 101.343 841.569 111.073 841.569 122.401C841.569 133.765 839.385 143.531 835.017 151.698C830.685 159.866 824.488 166.134 816.427 170.501C808.366 174.834 798.796 177 787.716 177ZM773.76 154.521H786.704C792.812 154.521 797.979 153.491 802.205 151.432C806.466 149.337 809.68 145.945 811.846 141.258C814.048 136.535 815.149 130.249 815.149 122.401C815.149 114.553 814.048 108.303 811.846 103.651C809.645 98.9638 806.395 95.5902 802.098 93.5305C797.837 91.4354 792.581 90.3878 786.331 90.3878H773.76V154.521ZM856.963 177V67.9091H933.029V89.3224H883.331V111.695H929.14V133.161H883.331V155.587H933.029V177H856.963Z" fill="black"/>
</svg>
