<svg width="197" height="184" viewBox="0 0 197 184" fill="none" xmlns="http://www.w3.org/2000/svg">
<path d="M75.5961 141.5C78.7155 154.499 91.6808 156.492 98.0172 157V108.607V87.86V68.0328L95.5462 66.5095C92.6105 67.3558 87.8451 74.4306 86.2853 81.7425L96.5211 73.1105V81.7425C93.2604 82.4195 86.7728 87.8357 85.3105 96.4677L96.5211 88.8734V108.805C95.831 108.989 95.1749 109.3 94.5714 109.721C93.0002 111 92.5002 111.5 91.5002 115C80.9498 117.031 86.8495 126.173 78.0002 120.5C58.991 108.314 80.4702 59.8619 98.0172 48.691V3.49989C77.5119 -2.08554 71.1755 -3.10107 58.5027 29.9037C33.9694 38.3665 1.70389 54.1443 0.534088 63.4872C-0.635712 72.8301 28.8042 83.7978 44.4015 87.86C43.9141 91.4143 40.4047 105.835 45.8637 143.206C48.2996 159.882 50.4003 166.883 56.5002 174.5C64.0707 183.953 75.5961 182.5 75.5961 182.5V141.5Z" fill="white"/>
<path d="M98.0172 108.607V157C91.6808 156.492 78.7155 154.499 75.5961 141.5V182.5C75.5961 182.5 64.0707 183.953 56.5002 174.5C50.4003 166.883 48.2996 159.882 45.8637 143.206C40.4047 105.835 43.9141 91.4143 44.4015 87.86C28.8042 83.7978 -0.635709 72.8301 0.534088 63.4872C1.70389 54.1443 33.9694 38.3665 58.5027 29.9037C71.1755 -3.10107 77.5119 -2.08554 98.0172 3.49989V48.691C80.4702 59.8619 58.991 108.314 78.0002 120.5C86.8495 126.173 80.9498 117.031 91.5002 115C92.5002 111.5 93.0002 111 94.5714 109.721C95.1749 109.3 95.831 108.989 96.5211 108.805M98.0172 108.607V87.86M98.0172 108.607C97.5061 108.607 97.0052 108.675 96.5211 108.805M98.0172 87.86V68.0328L95.5462 66.5095C92.6105 67.3558 87.8451 74.4306 86.2853 81.7425L96.5211 73.1105V81.7425C93.2604 82.4195 86.7728 87.8357 85.3105 96.4677L96.5211 88.8734M98.0172 87.86L96.5211 88.8734M96.5211 108.805V88.8734" stroke="white"/>
<path d="M120.921 141.5C117.802 154.499 104.837 156.492 98.5003 157V108.607V87.86V68.0328L100.971 66.5095C103.907 67.3558 108.672 74.4306 110.232 81.7425L99.9964 73.1105V81.7425C103.257 82.4195 109.745 87.8357 111.207 96.4677L99.9964 88.8734V108.805C100.686 108.989 101.343 109.3 101.946 109.721C103.517 111 104.017 111.5 105.017 115C115.568 117.031 109.668 126.173 118.517 120.5C137.526 108.314 116.047 59.8619 98.5003 48.691V3.49989C119.006 -2.08554 125.342 -3.10107 138.015 29.9037C162.548 38.3665 194.814 54.1443 195.983 63.4872C197.153 72.8301 167.713 83.7978 152.116 87.86C152.603 91.4143 156.113 105.835 150.654 143.206C148.218 159.882 146.117 166.883 140.017 174.5C132.447 183.953 120.921 182.5 120.921 182.5V141.5Z" fill="white"/>
<path d="M98.5003 108.607V157C104.837 156.492 117.802 154.499 120.921 141.5V182.5C120.921 182.5 132.447 183.953 140.017 174.5C146.117 166.883 148.218 159.882 150.654 143.206C156.113 105.835 152.603 91.4143 152.116 87.86C167.713 83.7978 197.153 72.8301 195.983 63.4872C194.814 54.1443 162.548 38.3665 138.015 29.9037C125.342 -3.10107 119.006 -2.08554 98.5003 3.49989V48.691C116.047 59.8619 137.526 108.314 118.517 120.5C109.668 126.173 115.568 117.031 105.017 115C104.017 111.5 103.517 111 101.946 109.721C101.343 109.3 100.686 108.989 99.9964 108.805M98.5003 108.607V87.86M98.5003 108.607C99.0114 108.607 99.5122 108.675 99.9964 108.805M98.5003 87.86V68.0328L100.971 66.5095C103.907 67.3558 108.672 74.4306 110.232 81.7425L99.9964 73.1105V81.7425C103.257 82.4195 109.745 87.8357 111.207 96.4677L99.9964 88.8734M98.5003 87.86L99.9964 88.8734M99.9964 108.805V88.8734" stroke="white"/>
<path d="M55.5636 48.2144C52.0542 54.7138 45.6249 78.8602 44.0002 88C11.8308 78.3524 -0.736574 72.9946 4.63282 63.2058C6.58248 59.6514 18.4433 51.7911 37.7771 46.9573C49.4867 44.0296 83.8337 38.5669 97.9687 38.0591V39.5824C77.0245 40.5979 56.5384 44.66 55.5636 48.2144Z" fill="url(#paint0_linear_5_16)"/>
<path d="M140.388 48.2144C143.898 54.7138 150.876 78.3602 152.5 87.5C184.67 77.8524 196.689 72.9946 191.319 63.2058C189.37 59.6514 177.509 51.7911 158.175 46.9573C146.465 44.0296 112.118 38.5669 97.9833 38.0591L97.9833 39.5824C118.455 40.5979 139.414 44.66 140.388 48.2144Z" fill="url(#paint1_linear_5_16)"/>
<defs>
<linearGradient id="paint0_linear_5_16" x1="63.8496" y1="54.8154" x2="13.6399" y2="56.6871" gradientUnits="userSpaceOnUse">
<stop offset="0.135112" stop-color="#F4FDEA"/>
<stop offset="1" stop-color="white"/>
</linearGradient>
<linearGradient id="paint1_linear_5_16" x1="132.102" y1="54.8154" x2="182.312" y2="56.6871" gradientUnits="userSpaceOnUse">
<stop offset="0.135112" stop-color="#F4FDEA"/>
<stop offset="1" stop-color="white"/>
</linearGradient>
</defs>
</svg>
